<?xml version="1.0" encoding="UTF-8" standalone="no"?>
<!-- Created with Inkscape (http://www.inkscape.org/) -->

<svg
   width="134.40121mm"
   height="135.51793mm"
   viewBox="0 0 134.40121 135.51793"
   version="1.1"
   id="svg1"
   xml:space="preserve"
   xmlns="http://www.w3.org/2000/svg"
   xmlns:svg="http://www.w3.org/2000/svg"><defs
     id="defs1" /><g
     id="layer1"
     transform="translate(1304.7252,-394.02408)"><g
       id="g1"
       transform="translate(-372.30723,-35.588191)"><path
         style="fill:#bd6f3d"
         d="M 54.008549,-9.1767738 C 33.957518,-11.605623 17.333354,-27.000483 13.296676,-46.878134 c -1.099558,-5.414512 -1.092672,-12.974809 0.01696,-18.616706 3.755952,-19.097091 19.070702,-34.130745 38.352689,-37.64874 3.189059,-0.58185 12.374045,-0.66073 15.345833,-0.1318 13.652912,2.43001 24.672576,9.440635 32.0479,20.388638 5.866062,8.707647 8.483522,17.99727 8.086642,28.700328 -0.42894,11.567756 -4.84629,22.029538 -12.81141,30.341787 -4.694731,4.89933 -8.323982,7.578645 -13.961674,10.307284 -8.259011,3.9973546 -17.181301,5.4730296 -26.365065,4.3605692 z M 57.928913,-26.30678 c 0.745312,-2.137762 0.677746,-7.56803 -0.129065,-10.372972 -1.113464,-3.871045 -3.398366,-7.379417 -6.265817,-9.620904 -0.727604,-0.568769 -2.80318,-1.888163 -4.612392,-2.931988 -1.809211,-1.043826 -4.071399,-2.532342 -5.027083,-3.307814 -2.746226,-2.228375 -3.344317,-2.388474 -3.950728,-1.057546 -0.85526,1.877089 0.198812,3.620026 4.411438,7.294435 3.06465,2.673102 3.634574,3.49914 2.823443,4.092253 -1.179894,0.862759 -4.898754,-0.976546 -7.825185,-3.870246 -3.149861,-3.114632 -4.165951,-5.312806 -5.376389,-11.631094 -0.361037,-1.884559 -0.838789,-3.77911 -1.061669,-4.210113 -0.557003,-1.077124 -1.66054,-1.888698 -2.568157,-1.888698 H 27.58924 l 0.0028,2.315104 c 0.0039,3.216559 0.664083,9.045869 1.310884,11.575521 1.113181,4.353669 4.245874,9.529977 7.607575,12.570384 2.14635,1.941213 4.202041,3.121575 8.805748,5.056193 6.139303,2.579922 8.374921,3.829536 10.185186,5.69308 0.873848,0.899567 1.668543,1.646352 1.765989,1.659522 0.09745,0.01317 0.395102,-0.601133 0.661458,-1.365117 z m 5.279854,0.443183 c 1.446661,-1.896671 4.73805,-3.861139 10.23338,-6.107801 5.190685,-2.122114 7.574384,-3.542657 10.33593,-6.159601 3.802593,-3.603479 6.749152,-9.534914 7.570941,-15.240339 0.166818,-1.158165 0.372987,-3.980989 0.458153,-6.272942 l 0.154847,-4.167187 h -0.726275 c -0.977459,0 -2.101054,0.843756 -2.642204,1.984147 -0.24435,0.514929 -0.790734,2.630633 -1.214186,4.701564 -1.268086,6.201691 -2.163182,8.157991 -5.056452,11.051261 -2.660984,2.660984 -6.308422,4.514597 -7.78151,3.954531 -1.314526,-0.499783 -1.06138,-0.846951 3.874712,-5.313828 3.123363,-2.826462 4.137371,-5.105395 2.933275,-6.592391 -0.633433,-0.782256 -1.124246,-0.603299 -3.227243,1.176702 -0.932228,0.789048 -2.65248,1.997138 -3.822782,2.684643 -1.170302,0.687506 -3.062654,1.797564 -4.205225,2.466795 -3.811576,2.23253 -6.823337,6.054501 -8.325667,10.565399 -0.585516,1.758072 -0.677827,2.504602 -0.6925,5.600343 -0.01337,2.820626 0.08807,3.891851 0.48231,5.093229 0.274581,0.836745 0.595944,1.521354 0.714139,1.521354 0.118194,0 0.539555,-0.425646 0.936357,-0.945879 z m -2.643558,-18.376122 c 0.604717,-6.135404 2.803564,-10.117027 7.372988,-13.350842 2.505308,-1.773024 3.053198,-1.90194 1.294023,-0.304477 -0.889016,0.807294 -2.280167,2.336432 -3.091445,3.398085 -1.515797,1.983597 -3.271395,5.311469 -2.872335,5.444734 0.123313,0.04118 1.105393,-0.238418 2.182398,-0.62133 4.658488,-1.656247 7.437794,-3.95012 9.234847,-7.621889 1.397025,-2.854423 1.852306,-4.783665 1.847419,-7.828389 -0.0051,-3.159907 -0.210125,-3.55528 -1.126057,-2.171213 -1.024547,1.548196 -2.594115,2.704134 -6.401754,4.714694 -4.443844,2.346497 -6.341847,4.063051 -7.818785,7.071308 -0.580611,1.182602 -1.144452,2.796049 -1.2541,3.58865 l -0.199216,1.440039 -1.055286,-1.836914 c -1.556523,-2.709404 -4.381459,-5.456071 -6.781093,-6.593213 -2.268338,-1.074923 -4.425593,-1.551398 -5.90939,-1.305214 l -1.048691,0.173994 1.445566,0.452813 c 6.823947,2.137551 11.069783,7.694322 12.425238,16.26163 0.336925,2.129575 0.428195,2.328273 1.017393,2.214914 0.356067,-0.06851 0.494653,-0.655562 0.73828,-3.12738 z M 58.82001,-64.67575 c -0.597651,-1.996051 -2.701631,-3.687754 -5.054389,-4.063975 l -1.124261,-0.179777 0.164685,1.390499 c 0.325008,2.74419 2.262472,4.787749 4.984526,5.257479 1.13823,0.196418 1.15283,0.1893 1.239812,-0.604447 0.04841,-0.441762 -0.04626,-1.251663 -0.210373,-1.799779 z m 3.908014,2.026782 c 2.125845,-0.861208 3.426766,-2.595551 3.898535,-5.197395 0.168386,-0.928661 0.137798,-0.992188 -0.477734,-0.992188 -1.676358,0 -4.070671,1.343202 -4.960358,2.782745 -0.569687,0.921773 -1.144982,3.216964 -0.94014,3.750773 0.149718,0.39016 0.937254,0.280929 2.479697,-0.343935 z m -3.542618,-7.446353 c -0.265954,-1.484015 -0.847927,-2.75516 -1.64614,-3.595496 -0.870907,-0.916868 -1.60781,-1.313282 -3.462215,-1.86249 l -1.425731,-0.42225 0.149351,1.447069 c 0.318901,3.089854 2.689902,5.342547 5.690662,5.406711 0.864907,0.01849 0.870461,0.0107 0.694073,-0.973544 z m 3.939091,0.337291 c 1.876226,-0.890327 3.164574,-2.669431 3.513575,-4.851961 0.167473,-1.047322 0.141789,-1.107726 -0.471009,-1.107726 -2.868956,0 -5.747655,2.825425 -5.76368,5.657014 -0.0058,1.023637 -0.003,1.026349 0.906713,0.878724 0.501889,-0.08145 1.318369,-0.340668 1.814401,-0.576051 z m -4.051317,-6.819583 c -0.0051,-2.956259 -2.129866,-5.286737 -5.375237,-5.895572 l -0.973287,-0.18259 0.0026,1.021633 c 0.0036,1.421931 1.079799,3.589365 2.210437,4.451745 0.916282,0.698882 2.723491,1.410648 3.673957,1.44698 0.34991,0.01338 0.462661,-0.192364 0.461545,-0.842196 z m 4.247553,0.05964 c 1.377415,-0.702704 2.546376,-2.151785 3.018607,-3.741958 0.75799,-2.552428 0.516654,-2.766069 -2.042859,-1.808432 -2.373278,0.887957 -3.898908,2.967017 -3.898908,5.313256 v 1.096277 l 0.979881,-0.183826 c 0.538934,-0.101105 1.41341,-0.404998 1.943279,-0.675317 z m -2.674979,-5.039928 c 1.613181,-2.226932 1.595012,-5.055008 -0.04842,-7.536131 -0.727158,-1.097808 -0.83186,-1.164638 -1.242463,-0.793048 -0.656191,0.593845 -1.550941,2.504974 -1.747102,3.731699 -0.09386,0.586951 -0.02977,1.597962 0.142424,2.246692 0.319817,1.204918 1.563248,3.427142 1.918112,3.427995 0.108228,2.6e-4 0.548078,-0.484483 0.977445,-1.077207 z m -384.926004,59.931683 c -1.27854,-1.865912 -4.44475,-3.848787 -9.28675,-5.815938 -7.92022,-3.217731 -11.07429,-5.541425 -14.35055,-10.572441 -3.25998,-5.006037 -4.90109,-11.635059 -4.65058,-18.785416 0.0772,-2.204668 0.12562,-2.387265 0.65248,-2.462358 0.75656,-0.107832 2.26276,1.236699 2.81794,2.515471 0.24003,0.552871 0.80109,2.845325 1.2468,5.094341 1.01879,5.140698 1.76964,6.743294 4.51956,9.646385 3.10746,3.280554 6.94461,5.204921 8.09154,4.057987 0.65063,-0.650629 -0.10507,-1.695223 -2.87534,-3.974534 -3.98344,-3.277475 -5.16353,-5.215306 -4.35477,-7.15095 0.57918,-1.386157 1.17405,-1.273179 3.62603,0.688647 1.14669,0.917463 3.3091,2.362186 4.80537,3.210496 6.87951,3.900351 9.58584,6.897919 11.36127,12.58389 1.13326,3.62933 0.70396,11.197333 -0.66497,11.722639 -0.18225,0.06994 -0.60436,-0.271263 -0.93803,-0.758219 z m 5.37075,-0.0077 c -1.2416,-2.971569 -1.06786,-8.235543 0.40504,-12.271367 1.80545,-4.947064 4.30109,-7.499882 10.86662,-11.115608 1.38245,-0.761333 3.15375,-1.877614 3.93622,-2.480626 3.70481,-2.8551 3.40689,-2.692636 3.98243,-2.171776 1.63614,1.480684 0.55747,4.002913 -2.98525,6.980359 -3.38105,2.841573 -3.91753,3.439151 -3.8224,4.257758 0.0731,0.628704 0.17989,0.684029 1.29586,0.671104 1.90036,-0.02201 3.99843,-1.226415 6.49846,-3.730477 3.02167,-3.026538 4.04803,-5.166498 5.12,-10.675228 0.43892,-2.255573 0.93027,-4.429011 1.09188,-4.829863 0.41482,-1.028873 1.96485,-2.313887 2.7911,-2.313887 h 0.69196 l -0.16199,4.696354 c -0.18658,5.408761 -0.77538,8.71029 -2.17045,12.170003 -2.81546,6.982212 -7.29627,11.180572 -15.47407,14.498648 -5.25402,2.13178 -7.60834,3.469301 -9.61851,5.464429 -0.99732,0.989853 -1.8666,1.799732 -1.93173,1.799732 -0.0651,0 -0.29696,-0.4273 -0.51517,-0.949555 z m 82.86119,-164.834972 c -2.27043,-3.41952 -6.48351,-6.70352 -12.19057,-9.50227 -1.60073,-0.785 -5.52979,-2.49306 -8.73125,-3.79568 -7.23827,-2.94514 -9.69711,-4.08153 -13.29911,-6.14637 -7.44414,-4.26734 -11.85282,-8.45775 -16.74251,-15.91362 -6.74884,-10.29071 -8.83993,-18.66326 -9.6791,-38.75438 -0.15964,-3.82197 -0.12902,-4.3612 0.28343,-4.99067 0.41343,-0.63097 0.57473,-0.68775 1.52293,-0.53613 1.51323,0.24197 2.38123,0.75929 3.6031,2.14741 1.97063,2.23875 2.80684,4.90601 4.80837,15.33725 1.00055,5.21445 2.1845,8.74665 3.86177,11.52117 4.62874,7.65681 13.14777,14.69687 19.36119,15.99993 2.11335,0.44321 3.31504,0.15917 3.74791,-0.88586 0.6375,-1.53908 -0.59861,-3.0019 -7.02646,-8.31513 -6.70737,-5.54429 -8.97237,-8.60479 -8.95257,-12.09684 0.0161,-2.82833 1.43099,-4.85159 3.07956,-4.40354 0.33815,0.0919 1.98404,1.30431 3.65753,2.69424 4.33977,3.60443 7.12339,5.43458 12.55695,8.25582 6.7272,3.49292 9.49243,5.38921 12.97986,8.90109 5.33699,5.3744 8.4969,11.37313 10.46608,19.8687 0.70422,3.0382 0.98877,10.45822 0.52317,13.64248 -0.56487,3.86319 -2.00395,8.45023 -2.65107,8.45023 -0.10889,0 -0.63954,-0.66503 -1.17921,-1.47783 z m 10.85973,-0.17582 c -1.60458,-3.8486 -2.13405,-7.54556 -1.93723,-13.52641 0.21195,-6.44071 1.3398,-11.13497 4.0073,-16.67894 3.99272,-8.29824 9.54764,-13.5253 20.08842,-18.90278 5.01086,-2.55633 8.28171,-4.69467 12.20579,-7.97962 3.5953,-3.00971 4.3916,-3.44063 5.35508,-2.89788 0.37906,0.21353 0.97563,0.92402 1.3257,1.57886 1.38947,2.59914 0.21929,6.355 -3.07232,9.86107 -0.96601,1.02893 -3.78316,3.55734 -6.26034,5.61868 -5.97885,4.97519 -6.83833,6.02608 -6.19627,7.57615 1.5146,3.65656 12.3561,-1.70503 19.06781,-9.42986 4.8643,-5.59855 6.68251,-9.7653 8.42816,-19.31458 1.55738,-8.51941 2.78603,-11.97447 4.929,-13.86079 1.04221,-0.91739 2.61095,-1.61733 3.62481,-1.61733 1.29081,0 1.50351,2.34184 0.97364,10.72014 -0.80701,12.76047 -2.31207,19.93226 -5.66261,26.98298 -2.74672,5.78008 -5.82072,10.25046 -10.06176,14.63237 -5.8158,6.00899 -11.76491,9.43509 -26.7384,15.39868 -9.19367,3.66162 -14.01448,6.84701 -17.51729,11.57468 -0.78168,1.05502 -1.52222,1.91823 -1.64564,1.91823 -0.12342,0 -0.53465,-0.74414 -0.91385,-1.65365 z"
         id="path2" /><path
         style="fill:#7a763d"
         d="m -182.91891,-27.072262 c 0.0979,-0.489369 0.0392,-0.98484 -0.14264,-1.203904 -0.23974,-0.288877 -0.21601,-0.465226 0.10595,-0.787179 0.46517,-0.465172 0.99484,-0.273377 0.99484,0.360233 0,0.744624 -0.60601,2.462477 -0.8687,2.462477 -0.14567,0 -0.18418,-0.357987 -0.0894,-0.831627 z m -95.48247,-1.160377 c -0.58208,-0.209703 -1.0881,-0.383071 -1.12448,-0.385262 -0.0364,-0.0022 -0.0661,-0.182577 -0.0661,-0.400858 0,-0.501834 0.2227,-0.497923 1.47645,0.02593 1.59914,0.668165 3.55063,0.149678 3.55063,-0.943359 0,-0.65763 -0.75736,-1.237377 -2.07481,-1.588234 -1.79306,-0.477521 -2.36411,-0.81419 -2.68176,-1.581048 -0.8401,-2.028187 1.76679,-3.570525 4.4525,-2.634278 0.97452,0.339718 1.19837,1.202693 0.23792,0.917227 -2.19669,-0.652905 -3.9026,-0.26707 -3.9026,0.882676 0,0.697159 0.48128,1.015615 2.54757,1.685685 1.43568,0.46557 1.8916,0.744572 2.16771,1.326541 0.4946,1.04247 0.0961,2.065337 -1.02687,2.636056 -1.09168,0.554792 -2.13187,0.572029 -3.55612,0.05893 z m 8.41764,0.01724 c -1.34265,-0.583961 -1.67076,-1.544522 -1.67076,-4.891268 0,-2.422327 0.068,-2.923556 0.39687,-2.923556 0.32561,0 0.39695,0.463204 0.39729,2.579688 3.1e-4,1.931869 0.11658,2.80828 0.46302,3.489973 0.74811,1.472078 2.58148,1.733344 3.77663,0.538193 0.45962,-0.459621 0.52244,-0.88828 0.52244,-3.565145 0,-2.86632 0.0307,-3.042709 0.52916,-3.042709 0.49589,0 0.52917,0.176389 0.52917,2.804285 0,3.274372 -0.36721,4.341348 -1.71408,4.980478 -1.06975,0.507631 -2.10945,0.517308 -3.22974,0.03006 z m 32.80834,0 c -1.34266,-0.583961 -1.67077,-1.544522 -1.67077,-4.891268 0,-2.422327 0.068,-2.923556 0.39687,-2.923556 0.3231,0 0.39966,0.454959 0.41181,2.447396 0.008,1.346068 0.15704,2.862718 0.33073,3.370334 0.41099,1.201153 1.49493,1.75242 2.80773,1.427949 1.42986,-0.353404 1.87277,-1.4566 1.87328,-4.665991 3.4e-4,-2.116484 0.0717,-2.579688 0.39729,-2.579688 0.55936,0 0.56693,5.166243 0.01,6.500312 -0.63112,1.510473 -2.72019,2.113159 -4.55646,1.314512 z m 8.17251,0.101945 c -0.77243,-0.235031 -1.36231,-0.875521 -1.07289,-1.164941 0.0575,-0.05748 0.66584,0.08028 1.3519,0.306137 1.95807,0.644622 3.63604,0.08455 3.63604,-1.213638 0,-0.441158 -1.176,-1.091133 -2.69542,-1.489751 -2.24669,-0.589417 -2.95918,-2.008035 -1.72762,-3.439809 0.72797,-0.846312 2.53554,-1.142133 4.00849,-0.656016 0.98104,0.323772 1.17957,0.994795 0.25378,0.857766 -0.27538,-0.04076 -0.94466,-0.145397 -1.48729,-0.232526 -1.34025,-0.215202 -2.38559,0.451307 -2.27052,1.44768 0.0723,0.625894 0.30109,0.782038 1.91074,1.303967 2.21325,0.717646 2.80159,1.203254 2.80159,2.312374 0,1.717738 -2.3309,2.692293 -4.7088,1.968757 z m 19.06791,-0.218592 c -1.45919,-0.682851 -2.1863,-1.879172 -2.1863,-3.597135 0,-2.56288 1.98977,-4.314888 4.55537,-4.011032 2.31027,0.273618 3.64474,1.742197 3.64474,4.011032 0,0.669297 -0.1768,1.558791 -0.39288,1.976655 -0.94759,1.832422 -3.55915,2.585321 -5.62093,1.62048 z m 3.81493,-0.959788 c 1.55245,-1.017203 1.74071,-3.5331 0.36715,-4.906658 -2.08801,-2.088007 -5.83282,-0.395389 -5.48203,2.477829 0.31765,2.601841 2.94601,3.849931 5.11488,2.428829 z m 5.92262,0.886596 c -1.37433,-0.720027 -2.13643,-1.975959 -2.13583,-3.519815 0.002,-4.110243 5.22037,-5.590847 7.75244,-2.199419 0.64862,0.868761 0.70051,2.948085 0.10212,4.092661 -1.03475,1.979219 -3.63433,2.718616 -5.71873,1.626573 z m 3.23007,-0.57701 c 1.28649,-0.544514 1.83931,-1.327253 1.98134,-2.805388 0.11796,-1.227616 0.0632,-1.382574 -0.79027,-2.236043 -1.1524,-1.15239 -2.10757,-1.406214 -3.47377,-0.923098 -1.39206,0.492261 -2.11347,1.499041 -2.11347,2.949474 0,1.378072 0.68161,2.51833 1.79539,3.003472 1.03804,0.452154 1.55443,0.454454 2.60078,0.01158 z m 20.76129,0.715302 c -0.5457,-0.226347 -0.99219,-0.510842 -0.99219,-0.63221 0,-0.458033 0.50419,-0.499919 1.41861,-0.117852 1.91219,0.798964 3.71564,0.215047 3.55744,-1.151819 -0.0712,-0.614836 -0.30835,-0.775657 -1.90987,-1.29495 -2.22994,-0.723059 -2.80159,-1.200443 -2.80159,-2.339596 0,-0.937204 0.50678,-1.601675 1.51349,-1.984425 1.42797,-0.542915 3.77817,-0.104138 3.77817,0.705376 0,0.308168 -0.13251,0.376598 -0.46302,0.239095 -0.25466,-0.105949 -1.01474,-0.25157 -1.68908,-0.323602 -1.0043,-0.107279 -1.32732,-0.0297 -1.78593,0.428911 -1.10159,1.101585 -0.69275,1.613818 1.98249,2.48385 1.35416,0.440395 1.91238,0.769114 2.20619,1.299163 1.17943,2.127718 -1.95144,3.875686 -4.81471,2.688059 z m 15.41198,0.224369 c 0,-0.09069 0.79962,-1.929926 1.77694,-4.087184 1.4945,-3.298836 1.86068,-3.910039 2.30375,-3.845229 0.39698,0.05807 0.95993,1.0225 2.28436,3.913517 1.13046,2.4676 1.6569,3.901861 1.47544,4.019761 -0.37984,0.246799 -0.836,-0.168017 -1.22954,-1.118117 -0.32395,-0.782088 -0.33332,-0.784977 -2.54629,-0.784977 h -2.22114 l -0.43177,0.905427 c -0.3664,0.768353 -1.41175,1.506448 -1.41175,0.996802 z m 5.68133,-3.247876 c -0.33323,-1.049913 -1.48748,-3.41685 -1.66583,-3.415992 -0.17492,8.42e-4 -1.64028,3.376561 -1.63627,3.769451 0.001,0.109141 0.78395,0.198438 1.73964,0.198438 1.64107,0 1.72789,-0.03067 1.56246,-0.551897 z m 20.51242,-0.732745 v -4.080423 l 2.3605,0.13459 c 2.73046,0.155683 3.93722,0.721053 4.62279,2.165778 0.80266,1.691481 0.48429,3.556003 -0.8125,4.758463 -0.83344,0.772801 -1.49945,0.934629 -4.25256,1.03328 l -1.91823,0.06874 z m 5.03436,2.685846 c 1.38335,-0.953437 1.84018,-2.383525 1.22882,-3.846726 -0.55313,-1.323834 -1.52862,-1.835941 -3.58371,-1.881355 l -1.75343,-0.03875 -0.0745,3.108854 -0.0745,3.108854 h 1.80161 c 1.26502,0 1.99644,-0.134288 2.45579,-0.450879 z m 3.80494,1.144562 c -0.21415,-0.558056 0.0864,-0.958266 0.71972,-0.958266 0.39971,0 0.51093,0.147319 0.4474,0.592609 -0.0987,0.691614 -0.9408,0.95545 -1.16712,0.365657 z m -136.63305,-3.868683 v -3.96875 l 1.65365,0.0015 c 0.9095,8.11e-4 2.10632,0.12718 2.6596,0.28082 2.06771,0.574188 2.63665,3.104764 1.00802,4.483587 l -0.78529,0.664842 0.90958,1.253387 c 0.87761,1.209322 0.88856,1.253372 0.3117,1.252915 -0.42048,-3.33e-4 -0.82098,-0.353607 -1.34978,-1.190625 -0.72445,-1.146696 -0.79932,-1.190152 -2.05052,-1.190152 h -1.29862 v 1.190625 c 0,1.014236 -0.0784,1.190625 -0.52917,1.190625 -0.50565,0 -0.52917,-0.176389 -0.52917,-3.96875 z m 4.59453,0.24538 c 0.84512,-0.664772 0.93111,-1.863496 0.18704,-2.607558 -0.50533,-0.505332 -2.4258,-0.948623 -3.3438,-0.771832 -0.38376,0.07391 -0.49291,0.400562 -0.56103,1.679029 -0.0465,0.873 -0.0284,1.736101 0.0402,1.918002 0.21722,0.575736 2.86843,0.418836 3.67758,-0.217641 z m 3.87214,-0.24538 v -3.96875 l 1.65365,0.0015 c 3.07643,0.0027 4.69635,0.931707 4.69635,2.693178 0,1.940547 -1.24753,2.861596 -3.87594,2.861596 h -1.41573 v 1.190625 c 0,1.014236 -0.0784,1.190625 -0.52916,1.190625 -0.50565,0 -0.52917,-0.176389 -0.52917,-3.96875 z m 4.31687,0.489558 c 0.77908,-0.410072 0.96596,-0.738377 0.97074,-1.705321 0.006,-1.241156 -0.71461,-1.723076 -2.66094,-1.779186 l -1.65666,-0.04776 0.0319,1.852083 c 0.0175,1.018646 0.0374,1.881849 0.0442,1.918229 0.0398,0.214903 2.79061,0.0147 3.27079,-0.238046 z m 3.88521,-0.489558 c 0,-3.792361 0.0235,-3.96875 0.52917,-3.96875 0.50303,0 0.52917,0.176389 0.52917,3.571875 v 3.571875 h 2.11666 c 1.7051,0 2.11667,0.07717 2.11667,0.396875 0,0.32632 -0.47037,0.396875 -2.64583,0.396875 h -2.64584 z m 26.72292,0 v -3.96875 h 2.77812 c 2.29306,0 2.77813,0.0693 2.77813,0.396875 0,0.321651 -0.42627,0.396875 -2.24896,0.396875 h -2.24896 v 1.5875 1.5875 h 1.98438 c 1.5875,0 1.98437,0.07937 1.98437,0.396875 0,0.3175 -0.39687,0.396875 -1.98437,0.396875 h -1.98438 v 1.5875 c 0,1.411111 -0.0588,1.5875 -0.52916,1.5875 -0.50565,0 -0.52917,-0.176389 -0.52917,-3.96875 z m 26.9875,-0.03605 v -4.004802 l 2.53484,0.132589 c 2.71541,0.142033 3.35639,0.414245 4.46027,1.894197 0.70019,0.938736 0.72954,3.211683 0.0548,4.241518 -0.88627,1.352616 -1.9087,1.739222 -4.60249,1.74031 l -2.44739,9.89e-4 z m 5.03574,2.809698 c 1.62326,-0.839419 2.08382,-3.191245 0.90038,-4.597689 -0.74618,-0.886783 -2.02678,-1.347217 -3.75331,-1.349482 l -1.12448,-0.0015 v 3.175 3.175 h 1.60064 c 0.91324,0 1.93395,-0.172362 2.37677,-0.401353 z m 17.71842,-2.773647 c 0,-3.792361 0.0235,-3.96875 0.52917,-3.96875 0.47489,0 0.52917,0.176389 0.52917,1.719792 v 1.719792 h 2.38125 2.38125 v -1.719792 c 0,-1.543403 0.0543,-1.719792 0.52916,-1.719792 0.50565,0 0.52917,0.176389 0.52917,3.96875 0,3.792361 -0.0235,3.96875 -0.52917,3.96875 -0.47738,0 -0.52916,-0.176389 -0.52916,-1.802423 v -1.802424 l -2.38125,-0.0508 -2.38125,-0.05081 v 1.853228 c 0,1.676839 -0.0504,1.853228 -0.52917,1.853228 -0.50565,0 -0.52917,-0.176389 -0.52917,-3.968749 z m 18.25625,0 v -3.96875 l 1.65365,0.0015 c 3.28999,0.0029 4.58102,0.862339 4.52465,3.011937 -0.0224,0.855676 -0.19329,1.207608 -0.8541,1.75927 l -0.82604,0.689617 0.78627,1.039162 c 0.92764,1.22601 0.97095,1.436038 0.29612,1.436038 -0.31051,0 -0.79433,-0.458173 -1.25677,-1.190152 -0.7352,-1.163719 -0.78275,-1.190162 -2.14096,-1.190625 l -1.38907,-4.73e-4 v 1.190625 c 0,0.881945 -0.10289,1.190625 -0.39687,1.190625 -0.33514,0 -0.39688,-0.617361 -0.39688,-3.96875 z m 4.64224,0.144318 c 0.72705,-0.727049 0.83387,-1.643022 0.27996,-2.400543 -0.27547,-0.376727 -0.81776,-0.542898 -2.13146,-0.653133 -0.9691,-0.08132 -1.81487,-0.09498 -1.87949,-0.03036 -0.18802,0.188014 -0.13545,3.362732 0.0589,3.557077 0.097,0.09701 0.8168,0.176389 1.59953,0.176389 1.15821,0 1.54403,-0.120897 2.07257,-0.649432 z m 3.82443,-0.144318 v -3.96875 h 2.77813 c 2.26015,0 2.77812,0.07208 2.77812,0.386574 0,0.303766 -0.49592,0.40295 -2.3151,0.463021 l -2.31511,0.07645 v 1.322917 1.322916 l 2.05052,0.07728 c 1.58467,0.05972 2.05052,0.164912 2.05052,0.46302 0,0.306288 -0.44281,0.385746 -2.14974,0.385746 h -2.14974 l 0.16537,0.826823 c 0.0909,0.454752 0.16536,1.045429 0.16536,1.312615 0,0.428099 0.27242,0.494872 2.29376,0.56224 1.54268,0.05141 2.32962,0.184741 2.40329,0.407176 0.0832,0.251279 -0.59491,0.330729 -2.82291,0.330729 h -2.93247 z m -178.69791,-4.716995 c -0.0745,-0.120493 -0.31666,-1.431343 -0.5382,-2.912999 -1.11329,-7.4456 -5.82314,-13.343581 -12.31474,-15.42131 l -1.46269,-0.468155 1.59806,-0.01423 c 5.08509,-0.04528 9.69857,2.998535 12.14232,8.011071 l 0.88124,1.807593 0.44651,-2.006977 c 1.01782,-4.574874 3.09137,-7.171601 7.62041,-9.543095 4.57142,-2.393683 6.19056,-3.563552 7.62196,-5.507065 l 0.74132,-1.006535 0.18664,1.244613 c 0.23608,1.574282 -0.0356,5.093662 -0.53845,6.974169 -1.40615,5.258969 -5.29406,9.056008 -10.70965,10.459328 -0.91319,0.236633 -1.71545,0.375141 -1.7828,0.307796 -0.0674,-0.06735 0.1962,-0.796006 0.58565,-1.619245 0.90754,-1.918381 3.32002,-4.952786 5.37766,-6.763996 0.88567,-0.779597 1.56183,-1.465928 1.50258,-1.525179 -0.26231,-0.262308 -4.26407,2.82599 -5.91792,4.567067 -2.71281,2.855881 -3.87305,5.696307 -4.16506,10.196642 -0.0803,1.236927 -0.20017,2.516849 -0.26647,2.844271 -0.11771,0.581341 -0.73847,0.812951 -1.00837,0.376234 z m 42.23906,-6.533626 c -0.32742,-0.231578 -0.59488,-0.622659 -0.59435,-0.869069 5.4e-4,-0.24641 1.20202,-3.543643 2.66997,-7.327184 1.46796,-3.783542 2.90718,-7.563717 3.19828,-8.400389 0.67852,-1.950166 1.54934,-2.681776 2.96701,-2.492689 0.56706,0.07563 1.24406,0.35486 1.50444,0.620505 0.26039,0.265644 1.98279,4.275614 3.82756,8.911044 2.84152,7.140019 3.31158,8.521428 3.07575,9.03903 -0.36158,0.793577 -1.21435,1.049702 -2.17296,0.652635 -0.63012,-0.261006 -0.91271,-0.708317 -1.60311,-2.537562 l -0.83815,-2.2207 h -4.01384 -4.01384 l -0.5909,1.834701 c -0.325,1.009086 -0.79492,2.075571 -1.04427,2.369968 -0.63452,0.749157 -1.65136,0.929112 -2.37159,0.41971 z m 9.53493,-11.300915 c -0.78909,-2.216887 -1.47021,-4.06621 -1.51361,-4.109606 -0.0434,-0.0434 -0.47089,1.026279 -0.94999,2.377058 -0.4791,1.350778 -1.1446,3.2001 -1.47889,4.109605 l -0.60779,1.653646 h 2.99249 2.99249 z m 44.91297,11.335585 c -0.73431,-0.244916 -1.67171,-1.398217 -5.67033,-6.976287 l -4.79059,-6.682863 -0.0709,6.529149 c -0.0464,4.27534 -0.17175,6.650708 -0.36312,6.8813 -0.46517,0.560496 -2.27344,0.449456 -2.59941,-0.15962 -0.17272,-0.322725 -0.27389,-3.69463 -0.27389,-9.128125 0,-8.263575 0.0217,-8.638018 0.52916,-9.145519 0.60711,-0.607104 0.91829,-0.642693 2.07966,-0.237839 0.86453,0.301376 1.17716,0.698781 7.54348,9.588998 l 2.81228,3.9272 v -6.324026 c 0,-7.136282 0.0443,-7.32475 1.71979,-7.32475 1.72348,0 1.71979,-0.02037 1.71979,9.49024 0,7.039467 -0.0664,8.584325 -0.38878,9.04458 -0.50886,0.7265 -1.16657,0.877982 -2.24717,0.517562 z m 6.14168,-0.03467 c -0.32742,-0.231578 -0.59531,-0.650386 -0.59531,-0.930683 0,-0.280298 1.44131,-4.232375 3.20292,-8.782393 3.57027,-9.221587 3.81079,-9.621478 5.63957,-9.376187 0.62597,0.08396 1.25575,0.368534 1.50973,0.682186 0.23967,0.295976 1.94642,4.314491 3.79279,8.930035 3.59919,8.997269 3.68375,9.380343 2.15537,9.763943 -1.33502,0.335069 -2.08232,-0.367758 -2.90275,-2.729999 l -0.75758,-2.181281 -4.00492,6.88e-4 -4.00492,6.87e-4 -0.73928,2.093267 c -0.4066,1.151297 -0.88351,2.212978 -1.05981,2.359292 -0.62984,0.522723 -1.62994,0.598964 -2.23581,0.170445 z m 9.48967,-11.377338 -1.48602,-4.107126 -0.36631,0.86598 c -0.20146,0.47629 -0.88407,2.324496 -1.5169,4.107126 l -1.1506,3.241146 h 3.00293 3.00293 z m 11.08168,11.435798 -0.66145,-0.332664 -0.0697,-8.956707 c -0.0497,-6.389611 0.0164,-9.060497 0.23083,-9.318837 0.44722,-0.538861 7.59956,-0.503975 9.45187,0.0461 1.47097,0.436831 3.02174,1.617255 3.60408,2.743383 1.0175,1.967636 0.70124,5.048087 -0.69178,6.738066 -1.40703,1.706963 -2.54823,2.11517 -6.24144,2.232551 l -3.24115,0.103014 v 3.115396 c 0,2.17481 -0.0999,3.195283 -0.33072,3.379995 -0.61289,0.490335 -1.38508,0.584368 -2.05053,0.249701 z m 7.45748,-9.719138 c 3.13938,-0.871939 3.1376,-5.427887 -0.002,-6.353304 -0.53498,-0.157664 -1.86566,-0.249111 -2.95707,-0.203216 l -1.98437,0.08344 -0.0753,3.026531 c -0.0414,1.664592 -0.0154,3.182638 0.0578,3.373437 0.16386,0.427008 3.50965,0.476309 4.96137,0.07311 z m 13.57137,9.586756 c -1.84332,-0.637384 -2.91164,-1.464531 -3.76376,-2.9141 l -0.72863,-1.239482 -0.13229,-6.614583 c -0.0728,-3.638021 -0.0454,-6.883937 0.0608,-7.213147 0.29562,-0.916226 1.40707,-1.323264 2.27891,-0.834585 l 0.70297,0.394028 0.13229,6.472686 c 0.14778,7.23025 0.2516,7.66591 2.13097,8.942071 0.78135,0.530564 1.16594,0.6052 2.68922,0.521895 2.00178,-0.109473 2.90523,-0.609854 3.77877,-2.092897 0.47879,-0.812859 0.54176,-1.514579 0.66146,-7.371069 l 0.13229,-6.472686 0.7276,-0.406481 c 0.65462,-0.365704 0.8006,-0.36558 1.45521,0.0012 l 0.72761,0.407717 v 6.868325 c 0,6.66467 -0.0183,6.905569 -0.61858,8.124388 -0.79202,1.608277 -2.44004,3.015212 -4.11424,3.512398 -1.74949,0.519541 -4.48085,0.481291 -6.12063,-0.08571 z m 26.91182,-0.182448 c -0.43079,-0.362491 -1.63865,-2.029366 -2.68412,-3.704166 l -1.90085,-3.045092 h -1.8341 -1.8341 v 3.254374 c 0,2.178403 -0.10497,3.359348 -0.3175,3.571875 -0.41075,0.410757 -2.12924,0.410757 -2.54,0 -0.23437,-0.234374 -0.3175,-2.650393 -0.3175,-9.228019 0,-7.474919 0.062,-8.961991 0.38495,-9.229993 0.27699,-0.229883 1.63344,-0.294617 4.83701,-0.230835 4.16384,0.0829 4.53703,0.132399 5.7642,0.764555 0.79345,0.40873 1.62685,1.123711 2.1083,1.808729 0.71895,1.022952 0.79617,1.33134 0.79617,3.179865 0,1.777764 -0.0934,2.188147 -0.70979,3.119621 -0.39039,0.589914 -1.1643,1.346035 -1.7198,1.68027 -0.5555,0.334235 -1.04972,0.636676 -1.09828,0.67209 -0.0486,0.03541 0.87417,1.439136 2.05052,3.119383 1.17634,1.680247 2.13881,3.18382 2.13881,3.341274 0,0.481565 -1.26692,1.585144 -1.81976,1.585144 -0.28649,0 -0.87336,-0.296584 -1.30416,-0.659075 z m -3.20644,-9.660748 c 1.53216,-0.425622 2.22932,-1.376808 2.22932,-3.041635 0,-2.451375 -1.34621,-3.303025 -5.22553,-3.305816 l -2.05052,-0.0015 v 3.130903 c 0,1.721996 0.0794,3.210277 0.17639,3.307291 0.27107,0.271071 3.80646,0.206271 4.87034,-0.08927 z m 10.82827,10.13356 c -1.01896,-0.357372 -1.05833,-0.721205 -1.05833,-9.780082 v -8.806873 l 0.63957,-0.419065 c 0.52097,-0.341348 0.83429,-0.366636 1.68947,-0.136359 0.96729,0.260464 1.33711,0.683255 4.70064,5.373903 2.00791,2.800158 4.13491,5.786428 4.72668,6.636154 l 1.07593,1.544958 0.13229,-6.527638 c 0.12306,-6.072036 0.16814,-6.553821 0.64589,-6.90277 0.60031,-0.438476 0.9395,-0.463434 1.80843,-0.133066 l 0.63668,0.242066 0.1592,8.819913 c 0.18183,10.0738 0.19254,10.010538 -1.69493,10.010538 -1.39127,0 -1.46091,-0.07731 -6.69891,-7.436157 -2.31969,-3.258916 -4.3172,-6.041621 -4.43891,-6.183791 -0.12172,-0.142169 -0.21068,2.703665 -0.19769,6.324076 0.0249,6.936176 0.004,7.064167 -1.19996,7.376233 -0.29105,0.07543 -0.70777,0.07452 -0.92605,-0.002 z m 18.85157,-0.216442 c -0.78843,-0.557634 -0.75071,-1.173901 0.22637,-3.698337 6.18179,-15.971679 6.02013,-15.659273 7.96774,-15.398044 1.25025,0.167694 1.7058,0.525622 2.22849,1.75094 1.73142,4.058945 6.44458,16.11211 6.44458,16.481006 0,0.253655 -0.29313,0.653257 -0.6514,0.888004 -0.53926,0.353341 -0.81014,0.374423 -1.57357,0.122469 -0.84136,-0.277674 -0.99602,-0.500025 -1.76497,-2.53738 l -0.8428,-2.233037 h -4.03616 -4.03615 l -0.62387,1.902962 c -0.34312,1.046629 -0.803,2.113115 -1.02195,2.369968 -0.58539,0.686739 -1.62025,0.843757 -2.31631,0.351449 z m 10.08935,-9.849899 c -0.52112,-1.418828 -1.18476,-3.264297 -1.47475,-4.101042 -0.28998,-0.836745 -0.56466,-1.521354 -0.61038,-1.521354 -0.0457,0 -0.26064,0.506016 -0.4776,1.124479 -0.21697,0.618464 -0.87946,2.463932 -1.47221,4.101042 l -1.07772,2.976562 h 3.03008 3.03008 z m -145.61285,9.476248 c -0.3585,-0.669848 -0.37357,-17.328435 -0.0163,-17.99602 0.3642,-0.680515 1.44042,-0.878262 2.46041,-0.452083 0.67936,0.283857 1.87583,1.765596 5.45166,6.751484 2.5197,3.513298 4.6591,6.43592 4.75423,6.494717 0.0951,0.0588 0.17297,-2.792794 0.17297,-6.33687 0,-4.07323 0.10037,-6.544161 0.27285,-6.716654 0.15007,-0.150084 0.64368,-0.347045 1.09692,-0.437693 0.63071,-0.126143 0.95469,-0.03419 1.38079,0.391914 0.54337,0.543372 0.55673,0.765737 0.55673,9.269079 0,9.747231 0.0392,9.543898 -1.84167,9.543898 -0.58208,0 -1.23655,-0.196208 -1.54446,-0.46302 -0.29389,-0.254662 -2.52569,-3.26099 -4.95957,-6.680729 -2.43388,-3.41974 -4.5356,-6.336771 -4.6705,-6.482292 -0.15102,-0.162914 -0.22018,2.243982 -0.18,6.263711 0.0506,5.065381 -0.0123,6.621743 -0.28083,6.945312 -0.51297,0.618086 -2.30601,0.554052 -2.65324,-0.09475 z m -64.59805,-14.405335 c -2.20403,-0.787631 -3.70439,-2.730627 -4.08176,-5.285933 l -0.18982,-1.285332 0.89422,0.176613 c 0.49182,0.09714 1.5451,0.498768 2.34062,0.892511 1.7851,0.883541 2.93272,2.553344 3.12416,4.545704 0.12039,1.252933 0.0944,1.320859 -0.502,1.309848 -0.34594,-0.0064 -1.05938,-0.165422 -1.58542,-0.353411 z m 3.37157,-0.494872 c 0.41504,-2.333705 0.71804,-3.0138 1.81101,-4.064901 1.0065,-0.967957 3.03704,-1.954369 4.02308,-1.954369 1.00285,0 -0.15902,3.946816 -1.53347,5.209098 -0.83469,0.766581 -2.83171,1.656997 -3.73257,1.664258 -0.66918,0.0054 -0.71,-0.05598 -0.56805,-0.854086 z m -2.41512,-5.934912 c -3.12262,-0.701278 -4.64616,-2.316221 -5.04883,-5.351705 l -0.18245,-1.375365 0.76355,0.16823 c 3.45408,0.76102 5.22778,2.481234 5.57419,5.406086 0.16598,1.401458 0.13671,1.431948 -1.10646,1.152754 z m 2.393,-0.0285 c -0.24067,-0.240677 0.1779,-2.270792 0.67132,-3.255905 0.68126,-1.36015 2.13647,-2.534009 3.72684,-3.0063 1.81937,-0.540295 1.80779,-0.543359 1.80779,0.478327 0,1.900754 -1.12161,3.910496 -2.74095,4.911298 -0.89546,0.553425 -3.20304,1.134537 -3.465,0.87258 z m -2.79159,-6.653065 c -2.63316,-0.800971 -4.14511,-2.61163 -4.62805,-5.542392 l -0.19105,-1.159394 1.02134,0.189425 c 1.42978,0.265175 3.48785,1.437268 4.19162,2.387167 0.73881,0.997195 1.19535,2.328543 1.19535,3.485845 0,0.947357 -0.24828,1.047242 -1.58921,0.639349 z m 2.91213,-0.798598 c 0,-2.337729 1.52906,-4.418159 3.89891,-5.304833 0.77693,-0.290689 1.58673,-0.528525 1.79955,-0.528525 0.56588,0 0.4825,1.483039 -0.16362,2.910417 -0.91706,2.025915 -2.55746,3.368146 -4.67495,3.825192 l -0.85989,0.185603 z m -1.84425,-5.105754 c -1.1381,-1.9845 -1.17319,-3.72737 -0.1193,-5.925771 1.0142,-2.11562 1.23052,-2.177305 2.22125,-0.633391 1.16104,1.809332 1.3644,3.888259 0.55854,5.710032 -0.58573,1.324156 -1.25779,2.238193 -1.64565,2.238193 -0.12002,0 -0.5767,-0.625078 -1.01484,-1.389063 z m 116.73793,-45.72331 c 0.19719,-0.7769 0.18939,-1.1583 -0.0281,-1.37583 -0.78891,-0.78892 0.31878,-2.21142 1.17116,-1.50401 0.48904,0.40586 0.47847,0.81757 -0.0652,2.5424 -0.30986,0.98296 -0.58282,1.41231 -0.89791,1.41231 -0.39771,0 -0.41957,-0.13059 -0.17988,-1.07487 z m -122.50045,-1.56383 c -1.15575,-0.52462 -1.2718,-0.68826 -0.90169,-1.27149 0.16909,-0.26646 0.46325,-0.22555 1.38501,0.19263 2.67628,1.21415 5.63393,0.14508 4.78051,-1.72798 -0.21609,-0.47426 -0.81033,-0.77764 -2.58111,-1.31776 -2.74122,-0.83612 -3.54262,-1.50468 -3.54262,-2.95538 0,-1.24821 0.58851,-2.12881 1.74587,-2.61239 1.06445,-0.44476 3.07908,-0.45561 4.31968,-0.0233 0.96358,0.3358 1.19523,0.64704 0.86675,1.16453 -0.15596,0.24568 -0.47612,0.22487 -1.38477,-0.09 -2.07237,-0.7181 -4.22461,-0.0263 -4.22461,1.35791 0,0.85054 0.77132,1.41048 2.70446,1.96331 2.10084,0.60078 2.70489,0.9125 3.23509,1.66948 0.85755,1.22432 0.18203,3.16946 -1.31842,3.79639 -1.28563,0.53717 -3.73398,0.46685 -5.08415,-0.14601 z m 11.17864,0.0451 c -1.79708,-1.14481 -1.84396,-1.28813 -1.93672,-5.92088 l -0.0846,-4.22719 0.61381,0.087 c 0.60328,0.0855 0.61607,0.15379 0.74609,3.98457 0.12903,3.80141 0.14991,3.91519 0.8463,4.61059 0.57774,0.57693 0.96786,0.71675 2.04414,0.73262 1.11479,0.0164 1.44898,-0.099 2.06412,-0.71326 0.7278,-0.7267 0.7347,-0.76628 0.81919,-4.69636 l 0.0852,-3.96348 h 0.6424 0.64239 l -4.1e-4,3.77032 c -4.5e-4,4.15342 -0.25462,5.09275 -1.65608,6.12039 -1.05919,0.77667 -3.75599,0.89721 -4.8258,0.21571 z m 9.65729,-4.84476 v -5.32167 l 2.71198,0.10853 c 4.14378,0.16584 5.50235,1.08514 5.48073,3.70866 -0.0111,1.34805 -0.42716,2.18917 -1.39781,2.82591 l -0.71006,0.46579 1.18657,1.70108 c 0.9094,1.30373 1.09127,1.72176 0.77858,1.78961 -0.7208,0.15639 -1.10662,-0.15531 -2.21805,-1.79197 -1.16728,-1.71889 -1.34787,-1.79253 -3.51683,-1.43402 l -0.99219,0.16399 v 1.55289 c 0,1.48001 -0.031,1.55288 -0.66146,1.55288 h -0.66146 z m 5.80191,0.43667 c 0.83279,-0.43065 1.07726,-0.8832 1.07726,-1.99416 0,-1.77466 -0.94023,-2.38125 -3.69103,-2.38125 h -1.86522 v 2.38125 2.38125 h 1.86522 c 1.11953,0 2.16449,-0.15475 2.61377,-0.38709 z m 5.16381,4.54577 c -0.0716,-0.18659 -0.0976,-2.53807 -0.0578,-5.22553 l 0.0723,-4.88627 2.77813,0.0166 c 3.05607,0.0183 4.13064,0.36752 4.94237,1.60639 0.58722,0.89621 0.55859,2.97099 -0.0539,3.90577 -0.70341,1.07354 -1.36062,1.31785 -3.96243,1.47299 l -2.38125,0.142 -0.0788,1.65364 c -0.0689,1.44625 -0.1446,1.65365 -0.60362,1.65365 -0.28866,0 -0.58342,-0.15266 -0.65502,-0.33924 z m 5.68411,-4.54577 c 0.86126,-0.44537 1.07726,-0.8785 1.07726,-2.16012 0,-0.62022 -0.20991,-1.12634 -0.64943,-1.56586 -0.5736,-0.57359 -0.88022,-0.64943 -2.62569,-0.64943 h -1.97626 l -0.0863,2.12283 c -0.0475,1.16755 -0.0466,2.23911 0.002,2.38125 0.13853,0.40591 3.41625,0.30688 4.25851,-0.12867 z m 5.04601,-0.40666 v -5.29167 h 0.66146 0.66145 v 4.63021 4.63021 h 2.77813 2.77812 v 0.66146 0.66146 h -3.43958 -3.43958 z m 10.71562,4.87841 c -1.66269,-0.84043 -1.84332,-1.40224 -1.93672,-6.02371 l -0.0846,-4.18802 0.61381,0.087 c 0.60328,0.0855 0.61607,0.15379 0.74609,3.98457 0.12997,3.82896 0.14521,3.91049 0.86591,4.63021 0.60397,0.60314 0.96529,0.73261 2.04451,0.73261 1.07922,0 1.44054,-0.12947 2.04451,-0.73261 0.7207,-0.71972 0.73594,-0.80125 0.86591,-4.63021 0.12879,-3.79455 0.14803,-3.89983 0.7276,-3.98214 0.59454,-0.0844 0.59531,-0.0794 0.59531,3.86347 0,3.6641 -0.0432,4.01268 -0.60058,4.84705 -0.33033,0.49446 -1.01494,1.1072 -1.52136,1.36163 -1.13062,0.56805 -3.28671,0.59286 -4.36035,0.0502 z m 9.98802,-0.10878 c -1.15575,-0.52462 -1.27179,-0.68826 -0.90168,-1.27149 0.16909,-0.26646 0.46325,-0.22555 1.38501,0.19263 2.67627,1.21415 5.63392,0.14508 4.7805,-1.72798 -0.21609,-0.47426 -0.81032,-0.77764 -2.5811,-1.31776 -2.74122,-0.83612 -3.54262,-1.50468 -3.54262,-2.95538 0,-1.24821 0.58851,-2.12881 1.74587,-2.61239 1.06445,-0.44476 3.07907,-0.45561 4.31967,-0.0233 0.96978,0.33796 1.19529,0.64677 0.85926,1.17664 -0.16599,0.26175 -0.47601,0.24117 -1.47028,-0.0976 -2.0798,-0.70865 -4.13161,-0.0365 -4.13161,1.35344 0,0.8616 0.77432,1.40996 2.77386,1.96442 2.12913,0.59039 3.09395,1.24673 3.39967,2.3127 0.34206,1.19272 -0.36944,2.65779 -1.5253,3.14073 -1.30994,0.54733 -3.75041,0.48302 -5.11125,-0.13468 z m 13.42761,-4.77731 v -5.29935 l 3.50573,0.0738 c 3.40847,0.0718 3.50807,0.0903 3.59027,0.66914 0.0833,0.5866 0.0417,0.59531 -2.84427,0.59531 h -2.92882 v 1.85208 1.85209 h 2.64584 c 2.46944,0 2.64583,0.0353 2.64583,0.52916 0,0.49389 -0.17639,0.52917 -2.64583,0.52917 h -2.64584 v 2.24896 c 0,2.2225 -0.008,2.24896 -0.66146,2.24896 h -0.66145 z m 11.43098,4.75073 c -3.67338,-1.86502 -3.83447,-7.21415 -0.27828,-9.24082 0.89687,-0.51113 1.52945,-0.65629 2.87021,-0.65862 2.00308,-0.003 3.0702,0.50407 4.32566,2.05738 0.67172,0.83107 0.82832,1.2915 0.91793,2.69879 0.13843,2.17388 -0.5866,3.81652 -2.13755,4.84289 -1.49086,0.9866 -4.07777,1.12297 -5.69797,0.30038 z m 4.7086,-1.2754 c 2.496,-1.78712 2.46332,-5.33783 -0.0637,-6.92424 -0.67812,-0.42571 -1.19015,-0.52028 -2.39711,-0.44275 -1.34715,0.0865 -1.65162,0.21541 -2.49021,1.054 -0.82351,0.82351 -0.97278,1.16499 -1.0813,2.47363 -0.0943,1.13708 -0.007,1.73843 0.34645,2.39534 1.08783,2.01999 3.88818,2.73118 5.6859,1.44402 z m 8.4438,1.58484 c -2.11541,-0.6834 -3.41672,-2.54423 -3.41672,-4.8858 0,-1.89069 0.45173,-2.98657 1.67315,-4.05899 1.74758,-1.5344 4.03952,-1.79703 6.21624,-0.71233 1.85815,0.92595 2.74686,2.40309 2.74686,4.56556 0,3.11493 -1.8764,5.11836 -4.9124,5.24496 -0.89254,0.0372 -1.93075,-0.0318 -2.30713,-0.1534 z m 4.04613,-1.5088 c 1.39643,-0.72213 2.19058,-2.72715 1.7877,-4.51347 -0.12328,-0.54665 -0.62475,-1.37581 -1.14931,-1.90037 -0.81161,-0.81161 -1.12684,-0.9432 -2.4654,-1.02919 -1.20696,-0.0775 -1.71899,0.017 -2.39711,0.44275 -1.19603,0.75083 -1.91363,2.03125 -1.91482,3.4166 -0.003,3.33155 3.11117,5.1494 6.13894,3.58368 z m 5.76632,-3.54786 v -5.36243 l 2.89162,0.13705 c 2.20062,0.10431 3.1686,0.27115 4.05072,0.69818 3.65213,1.76796 3.73314,7.21217 0.13497,9.07016 -0.90154,0.46553 -1.71369,0.60416 -4.10075,0.69998 l -2.97656,0.11948 z m 6.35,3.50949 c 1.01335,-0.50623 2.12085,-2.34007 2.11085,-3.49524 -0.003,-0.36934 -0.23237,-1.17057 -0.50928,-1.78049 -0.71456,-1.57391 -2.03075,-2.19834 -4.63374,-2.19834 h -1.99491 v 3.96875 3.96875 l 2.05052,-4.1e-4 c 1.42202,-2.9e-4 2.33436,-0.14221 2.97656,-0.46302 z m 13.82448,1.26431 c -1.15575,-0.52462 -1.2718,-0.68826 -0.90169,-1.27149 0.16909,-0.26646 0.46325,-0.22555 1.38501,0.19263 2.22265,1.00835 4.7422,0.47135 4.7422,-1.01072 0,-1.02484 -0.60078,-1.47282 -2.87736,-2.14555 -2.38171,-0.7038 -3.20806,-1.43659 -3.20806,-2.84485 0,-1.24821 0.58851,-2.12881 1.74587,-2.61239 1.81257,-0.75734 5.36129,-0.17394 5.17429,0.85063 -0.12965,0.71037 -0.10902,0.70756 -1.60428,0.21849 -2.11046,-0.6903 -3.99296,-0.0482 -3.99296,1.36188 0,0.59824 1.10588,1.69799 1.70745,1.69799 0.8662,0 3.19374,0.90839 3.74819,1.46284 0.47121,0.47121 0.62977,0.92097 0.62977,1.7863 0,1.19584 -0.46929,1.86947 -1.76854,2.53863 -0.9168,0.47218 -3.5139,0.35026 -4.77989,-0.22439 z m 9.10607,0.34565 c -0.097,-0.097 -0.17639,-2.47827 -0.17639,-5.29167 v -5.11528 h 0.66146 c 0.65368,0 0.66146,0.0265 0.66146,2.24896 v 2.24896 h 3.04271 3.04271 v -2.24896 c 0,-2.2225 0.008,-2.24896 0.66146,-2.24896 h 0.66145 v 5.31007 5.31007 l -0.59531,-0.0845 c -0.55863,-0.0793 -0.60002,-0.22718 -0.67176,-2.39965 l -0.0764,-2.3151 h -3.03241 -3.03241 v 2.38125 c 0,2.1327 -0.0506,2.38125 -0.48507,2.38125 -0.26679,0 -0.56444,-0.0794 -0.66146,-0.17639 z m 10.67153,-0.0479 c 0,-0.14358 1.00685,-2.50334 2.23745,-5.24392 2.08736,-4.64864 2.28441,-4.98286 2.93768,-4.98286 0.65358,0 0.84825,0.3312 2.92193,4.97127 1.22193,2.7342 2.22169,5.09397 2.22169,5.24392 0,0.14996 -0.26661,0.2346 -0.59247,0.1881 -0.40921,-0.0584 -0.77669,-0.47328 -1.18805,-1.34132 l -0.59559,-1.25677 h -2.78326 -2.78327 l -0.59558,1.25677 c -0.41137,0.86804 -0.77885,1.28293 -1.18806,1.34132 -0.32586,0.0465 -0.59247,-0.0329 -0.59247,-0.17651 z m 7.30931,-3.88549 c -0.62669,-1.63315 -2.10638,-4.88554 -2.18632,-4.8056 -0.12386,0.12386 -2.21257,4.93092 -2.21257,5.09212 0,0.0655 1.02477,0.11906 2.27726,0.11906 1.93725,0 2.25403,-0.0606 2.12163,-0.40558 z m 4.98644,3.78906 c -0.0755,-0.19679 -0.10475,-2.55662 -0.065,-5.24408 l 0.0723,-4.88627 2.77812,0.0245 c 3.02926,0.0267 4.14362,0.37946 4.91435,1.55574 0.92032,1.40459 0.29678,4.2469 -1.09122,4.97415 l -0.66814,0.35007 0.75586,1.0457 c 0.41572,0.57513 0.96969,1.37312 1.23106,1.7733 l 0.4752,0.72761 h -0.67852 c -0.53284,0 -0.942,-0.36924 -1.90574,-1.71979 l -1.22721,-1.7198 h -1.55166 -1.55165 l -0.0788,1.65365 c -0.0708,1.48627 -0.13914,1.66222 -0.67526,1.73835 -0.32808,0.0466 -0.65828,-0.0763 -0.7338,-0.2731 z m 5.5592,-4.44013 c 0.40893,-0.15547 0.84987,-0.64199 1.07911,-1.19062 0.33727,-0.80721 0.33852,-1.04526 0.01,-1.83247 -0.51274,-1.22716 -1.09958,-1.47651 -3.47489,-1.47651 h -2.02852 l 0.14567,1.65365 c 0.0801,0.9095 0.15169,1.98106 0.15904,2.38125 0.0132,0.71698 0.0382,0.7276 1.71594,0.7276 0.93641,0 2.01373,-0.1183 2.39405,-0.2629 z m 5.42838,-0.53085 v -5.29167 h 3.43959 3.43958 v 0.66146 0.66146 h -2.77812 -2.77813 v 1.71979 1.71979 h 2.51354 c 2.33715,0 2.51354,0.0371 2.51354,0.52917 0,0.49203 -0.17639,0.52917 -2.51354,0.52917 h -2.51354 v 1.68893 c 0,2.01739 -0.0344,1.99859 3.4278,1.87209 2.38327,-0.0871 2.39303,-0.0848 2.39303,0.55702 v 0.64446 h -3.57187 -3.57188 z m 9.91858,4.9816 c -0.0778,-0.20263 -0.10882,-2.56724 -0.069,-5.2547 l 0.0723,-4.88627 2.91905,0.0314 c 3.87103,0.0417 5.15015,0.64444 6.33765,2.98651 0.73147,1.44265 0.46498,3.96183 -0.55436,5.24045 -1.27027,1.59338 -2.435,2.03073 -5.72289,2.14889 -2.25408,0.081 -2.8706,0.026 -2.98275,-0.2663 z m 6.42186,-1.54059 c 2.64736,-1.61411 2.53035,-5.56062 -0.20613,-6.95183 -0.68844,-0.35 -1.42146,-0.45014 -2.90514,-0.39688 l -1.98437,0.0712 0.0363,1.05834 c 0.0199,0.58208 0.0497,2.33825 0.0661,3.9026 l 0.0299,2.84427 2.05052,-9.9e-4 c 1.57915,-7.6e-4 2.24874,-0.12185 2.91283,-0.52675 z m 4.94296,1.22141 c -0.21709,-0.86499 0.0267,-1.22284 0.83323,-1.22284 1.2216,0 1.12484,1.61937 -0.10773,1.80312 -0.41069,0.0612 -0.60312,-0.0927 -0.7255,-0.58028 z m -72.55606,-20.29141 c -3.18736,-0.41402 -6.24187,-2.39282 -7.52702,-4.87622 -1.15023,-2.22266 -1.25429,-3.25815 -1.25759,-12.51359 l -0.003,-8.80942 0.64943,-0.64943 c 1.0712,-1.0712 3.21472,-0.74411 3.81931,0.58282 0.19462,0.42715 0.29376,3.3477 0.29376,8.65405 0,8.93746 0.15078,10.00048 1.66273,11.7225 1.1623,1.32379 2.60494,1.92623 4.62962,1.9333 3.14957,0.011 4.90173,-1.26671 5.95751,-4.34435 0.15778,-0.45995 0.34338,-4.56561 0.43001,-9.51241 l 0.15242,-8.7032 0.70349,-0.52473 c 0.57502,-0.4289 0.92928,-0.49087 1.93986,-0.33932 1.91072,0.28653 1.98729,0.62614 1.98469,8.8031 -0.002,7.55499 -0.26596,10.73419 -1.06746,12.87638 -1.16861,3.1234 -4.05693,5.18125 -8.0115,5.708 -1.13831,0.15162 -2.20987,0.26058 -2.38125,0.24213 -0.17137,-0.0185 -1.06006,-0.13078 -1.97487,-0.24961 z m -116.139,-0.17948 c -1.68981,-0.1964 -1.65708,0.0744 -1.65708,-13.71044 0,-12.26364 0.009,-12.47592 0.5465,-12.9624 0.63542,-0.57505 2.93532,-0.67809 3.85885,-0.17289 0.44219,0.2419 8.13271,10.76963 13.03496,17.84386 0.37601,0.5426 0.74318,0.98914 0.81594,0.99231 0.0728,0.003 0.0995,-4.02548 0.0594,-8.95257 -0.0694,-8.52853 -0.0483,-8.9887 0.43997,-9.59126 0.42518,-0.52475 0.74461,-0.62959 1.86889,-0.61339 2.40226,0.0346 2.25153,-0.82551 2.33557,13.3277 l 0.0736,12.40268 -0.62709,0.72903 c -0.5176,0.60176 -0.84246,0.72904 -1.86072,0.72904 -2.18976,0 -1.60422,0.66152 -10.24708,-11.5769 l -5.40407,-7.65224 -0.13229,9.16447 c -0.14296,9.90368 -0.12178,9.76988 -1.5875,10.02665 -0.3638,0.0637 -1.04687,0.0711 -1.51792,0.0164 z m 47.08156,-0.0624 c -0.4789,-0.11347 -1.11721,-0.4287 -1.41846,-0.70052 -0.30126,-0.27182 -3.35271,-4.48282 -6.78102,-9.35777 -3.42831,-4.87494 -6.3403,-8.9826 -6.4711,-9.12812 -0.14113,-0.15702 -0.22143,3.39264 -0.19752,8.73125 0.0222,4.94771 0.0303,9.13616 0.0182,9.30766 -0.0513,0.72446 -0.87527,1.14338 -2.24893,1.14338 -2.41455,0 -2.27106,0.84594 -2.27106,-13.38957 0,-13.76107 -0.0474,-13.38125 1.7094,-13.71081 0.51072,-0.0958 1.40774,-0.0452 1.99338,0.11251 0.99309,0.26741 1.3284,0.6577 4.9799,5.79648 2.15331,3.03037 5.09897,7.24615 6.5459,9.36841 1.44694,2.12226 2.69242,3.86469 2.76774,3.87207 0.0753,0.007 0.13485,-4.08936 0.13229,-9.10386 -0.005,-10.50416 -0.10209,-10.08057 2.29382,-10.04485 2.45402,0.0366 2.33173,-0.67249 2.33173,13.52028 0,7.51147 -0.10071,12.47941 -0.259,12.77515 -0.22443,0.41936 -1.63445,1.12026 -2.09558,1.04169 -0.0874,-0.0149 -0.55079,-0.11992 -1.02969,-0.23338 z m 37.78011,0.0704 c -0.36381,-0.0675 -0.86982,-0.30892 -1.12448,-0.53648 -0.42863,-0.38303 -0.46302,-1.34428 -0.46302,-12.94046 0,-12.17393 0.0149,-12.54161 0.52916,-13.05587 0.49539,-0.49539 0.87965,-0.52897 6.01927,-0.52603 5.74783,0.003 7.1225,0.19174 9.21932,1.26384 2.88181,1.47346 4.35647,4.93734 3.79371,8.91116 -0.43471,3.06962 -1.93693,5.04241 -4.87709,6.40482 -1.48193,0.6867 -1.86463,0.74224 -5.75469,0.8353 l -4.16718,0.0997 v 4.1763 c 0,3.59636 -0.0643,4.2509 -0.46303,4.71356 -0.49689,0.57657 -1.64178,0.85273 -2.71197,0.65417 z m 9.1267,-13.56642 c 1.73643,-0.28434 2.61623,-0.80704 3.47102,-2.06217 1.12015,-1.64479 0.99843,-4.46724 -0.25211,-5.8459 -1.14429,-1.26151 -2.413,-1.60662 -5.92947,-1.61293 l -3.24114,-0.006 v 4.89479 4.89479 l 2.18281,-0.002 c 1.20054,-8.4e-4 2.89655,-0.1184 3.76889,-0.26124 z m 58.54639,13.57891 c -0.84491,-0.14163 -1.03928,-0.39679 -4.59815,-6.03618 l -2.67401,-4.23725 -2.41922,-0.0761 -2.41922,-0.0761 v 4.47217 c 0,4.12373 -0.0427,4.52648 -0.54837,5.1693 -0.46853,0.59564 -0.75146,0.69714 -1.94336,0.69714 -2.52792,0 -2.3847,0.83027 -2.34108,-13.57196 l 0.0378,-12.48476 0.60069,-0.48641 c 0.55275,-0.44759 1.07676,-0.47792 6.56469,-0.37999 6.97577,0.12449 7.95664,0.3392 10.01856,2.19304 1.94777,1.75121 2.5556,3.16953 2.54761,5.94466 -0.005,1.71568 -0.13927,2.5411 -0.5665,3.48095 -0.65482,1.4405 -2.35862,3.18673 -3.58623,3.67552 -0.47407,0.18876 -0.9007,0.37133 -0.94807,0.40571 -0.0474,0.0344 1.24974,2.06101 2.88247,4.50362 1.63274,2.44261 3.02026,4.63864 3.0834,4.88008 0.0631,0.24143 -0.16241,0.75812 -0.50122,1.14819 -0.63545,0.73158 -1.7892,1.0131 -3.1898,0.77832 z m -4.55902,-14.60721 c 2.59676,-1.17955 3.6043,-4.47084 2.03273,-6.64022 -0.96562,-1.33292 -2.51678,-1.82792 -6.21087,-1.98199 l -3.37344,-0.14069 v 4.63011 4.63011 l 3.24115,-0.006 c 2.57075,-0.005 3.46232,-0.10627 4.31043,-0.49151 z m 32.21142,14.49124 c -0.85842,-0.24814 -2.87828,-2.92791 -11.69495,-15.51584 -1.3507,-1.92846 -2.54675,-3.56248 -2.65787,-3.63116 -0.11112,-0.0687 -0.14204,3.72595 -0.0687,8.43251 0.0733,4.70655 0.0568,8.86233 -0.0368,9.23505 -0.28739,1.14506 -0.87088,1.50844 -2.42214,1.50844 -2.36766,0 -2.24507,0.74505 -2.24507,-13.64391 0,-12.34316 0.006,-12.47286 0.5575,-12.97185 0.77814,-0.70351 3.1428,-0.67549 4.11281,0.0487 0.3866,0.28864 3.57183,4.59162 7.07828,9.56218 3.50646,4.97057 6.4349,9.0442 6.50766,9.05253 0.0728,0.008 0.0981,-4.01439 0.0563,-8.93936 -0.0725,-8.54369 -0.0524,-8.9837 0.43964,-9.5913 0.67578,-0.83454 2.84827,-0.91231 3.70964,-0.13278 0.55113,0.49876 0.55694,0.6337 0.55694,12.91583 0,7.86479 -0.0981,12.59505 -0.26769,12.912 -0.14724,0.27511 -0.71278,0.6238 -1.25677,0.77488 -1.13683,0.31572 -1.22341,0.31513 -2.36879,-0.016 z m -210.27195,-0.55904 c -0.22653,-0.32342 -0.41188,-0.68903 -0.41188,-0.81247 0,-0.38152 8.68603,-23.00537 9.28647,-24.18776 0.6695,-1.31839 1.76868,-1.79874 3.63476,-1.58841 0.89989,0.10143 1.39133,0.33344 1.88686,0.89077 0.39624,0.44567 2.06285,4.26744 4.0785,9.35258 1.87465,4.72942 4.0335,10.14677 4.79744,12.03854 1.10777,2.74322 1.33371,3.54672 1.11599,3.96875 -0.4104,0.79553 -0.71953,0.91757 -2.33557,0.92199 -1.89307,0.005 -2.13148,-0.25642 -3.42194,-3.75476 l -1.00463,-2.72348 -5.68808,-0.0712 -5.68807,-0.0712 -0.97297,2.91997 c -0.53514,1.60599 -1.14957,3.09656 -1.36539,3.31239 -0.25772,0.25772 -0.92567,0.39241 -1.94601,0.39241 -1.30551,0 -1.61937,-0.0939 -1.96548,-0.58804 z m 15.91121,-10.7229 c -0.19758,-0.40018 -1.17235,-2.96462 -2.16615,-5.69876 -0.9938,-2.73414 -1.89255,-4.87727 -1.99724,-4.7625 -0.10469,0.11476 -0.9706,2.47085 -1.92425,5.23574 -0.95365,2.7649 -1.81403,5.23545 -1.91194,5.49011 -0.16503,0.42919 0.13379,0.46302 4.0904,0.46302 h 4.26843 z m 69.01154,10.78895 c -0.31906,-0.35255 -0.42463,-0.76082 -0.32523,-1.25781 0.19419,-0.97095 8.85363,-23.27728 9.39978,-24.21341 0.83312,-1.42801 3.97772,-1.68182 5.23686,-0.42268 0.40023,0.40022 2.32871,4.91705 5.2935,12.39826 2.56514,6.47277 4.72327,12.04074 4.79584,12.37326 0.23242,1.06499 -0.59392,1.64437 -2.34524,1.64437 -1.9759,0 -2.21257,-0.25818 -3.50574,-3.82444 l -1.01543,-2.80031 -5.70566,0.0712 -5.70566,0.0712 -0.9481,2.81152 c -0.52145,1.54633 -1.1115,3.00485 -1.31121,3.24114 -0.55709,0.65911 -3.24172,0.59493 -3.86371,-0.0924 z m 16.00079,-10.22285 c 0,-0.0888 -0.69961,-2.0236 -1.55469,-4.29948 -0.85508,-2.27588 -1.75762,-4.76305 -2.00564,-5.52703 -0.24802,-0.76399 -0.53068,-1.38787 -0.62812,-1.38641 -0.0975,0.001 -0.99876,2.41248 -2.00292,5.35782 -1.00416,2.94533 -1.8801,5.50398 -1.94654,5.68588 -0.0934,0.25561 0.81705,0.33073 4.00856,0.33073 2.27114,0 4.12935,-0.0727 4.12935,-0.16151 z m 117.51099,10.06905 c -0.64303,-0.81748 -1.14672,0.70721 4.58416,-13.87629 2.43038,-6.18464 4.66345,-11.50782 4.9624,-11.82929 0.69194,-0.74409 2.55889,-1.04255 3.93758,-0.62948 1.3052,0.39104 1.2107,0.20278 5.39022,10.73898 5.9194,14.92229 5.83421,14.67824 5.39703,15.45944 -0.33987,0.60732 -0.56642,0.68841 -2.1159,0.75742 -1.2477,0.0556 -1.82242,-0.0277 -2.04541,-0.29639 -0.17056,-0.20552 -0.77181,-1.66905 -1.3361,-3.25228 l -1.02599,-2.87861 h -5.76092 -5.76091 l -0.94826,2.81152 c -0.52155,1.54633 -1.11167,3.00485 -1.31139,3.24114 -0.25814,0.30541 -0.80722,0.42963 -1.89903,0.42963 -1.33184,0 -1.60652,-0.0898 -2.06748,-0.67579 z m 16.10359,-10.12397 c 0,-0.27658 -3.65884,-10.33289 -3.94646,-10.84685 -0.15783,-0.28203 -0.33214,-0.0741 -0.64946,0.77483 -0.23855,0.63818 -1.19281,3.21415 -2.12059,5.72438 l -1.68687,4.56407 h 4.20169 c 2.31093,0 4.20169,-0.0974 4.20169,-0.21643 z m -114.24157,-63.40168 c -0.3631,-0.4616 -0.5599,-1.2775 -0.68608,-2.84427 -0.24973,-3.10094 -0.90847,-6.84471 -1.66686,-9.47304 -3.73556,-12.94632 -13.89973,-23.39208 -25.75132,-26.46473 l -1.71979,-0.44587 1.77949,-0.20087 c 1.033,-0.11661 2.80887,-0.0782 4.23333,0.0916 6.75183,0.80469 11.45241,3.07839 16.21078,7.84123 2.90351,2.90623 5.19437,6.10183 7.04753,9.83082 l 1.39635,2.80979 0.59928,-3.04746 c 1.16881,-5.94362 3.33877,-10.63728 6.53394,-14.13306 2.65211,-2.90162 4.45581,-4.09429 13.91064,-9.19817 6.94515,-3.74912 10.78313,-6.88073 12.32482,-10.05651 0.75531,-1.55587 0.76155,-1.56098 0.97007,-0.79375 0.50612,1.86231 0.73775,6.45826 0.48278,9.57904 -0.94961,11.62278 -5.76062,20.15057 -14.27028,25.29488 -3.42406,2.06993 -8.70162,4.12975 -12.32049,4.80865 -0.94752,0.17776 -0.98081,0.15939 -0.80636,-0.44476 0.45142,-1.56332 3.15186,-6.66906 4.67141,-8.83227 1.07054,-1.524 3.55182,-4.26243 6.89246,-7.60677 2.87087,-2.87403 5.16246,-5.22552 5.09243,-5.22552 -0.23693,0 -6.58061,4.31162 -8.57839,5.83049 -4.34241,3.30144 -8.22071,8.04339 -10.4811,12.81513 -1.97643,4.17229 -2.76705,8.1018 -3.16895,15.75022 -0.0956,1.81901 -0.29593,3.54541 -0.44523,3.83645 -0.57136,1.11385 -1.50283,1.22923 -2.25046,0.27877 z m -4.22305,-44.18221 c -3.49936,-1.13328 -6.16059,-3.36767 -7.74183,-6.50008 -0.89783,-1.77859 -1.57529,-4.46815 -1.5827,-6.28345 -0.006,-1.35818 0.21129,-1.39755 3.17486,-0.5763 5.97481,1.65571 9.58647,5.9426 10.18203,12.08567 l 0.18597,1.91823 -1.15133,-0.0118 c -0.63324,-0.007 -2.01339,-0.29101 -3.067,-0.63223 z m 6.54587,-0.75555 c 0,-6.54804 4.999,-11.9272 12.10469,-13.02521 l 1.12448,-0.17377 v 1.31006 c 0,4.8033 -2.73079,9.46863 -6.81722,11.64667 -1.70738,0.91003 -4.17744,1.64187 -5.54149,1.64187 h -0.87046 z m -5.88098,-13.03472 c -5.53264,-1.34116 -9.44432,-6.11241 -9.91202,-12.09014 -0.15967,-2.04082 -0.15738,-2.05052 0.48466,-2.05052 1.06539,0 3.69187,0.7643 5.46905,1.59149 2.20792,1.02768 4.75271,3.48026 5.83756,5.62607 0.86463,1.7102 1.60795,4.62772 1.61589,6.34234 0.005,0.97483 -0.0128,0.9918 -0.9876,0.97014 -0.5457,-0.0121 -1.67409,-0.18735 -2.50754,-0.38938 z m 5.88098,-1.12049 c 0,-6.02759 4.28442,-11.12222 10.60667,-12.61247 2.63438,-0.62096 2.62311,-0.62518 2.61859,0.98136 -0.01,3.38717 -1.31747,6.55978 -3.74766,9.09058 -2.27862,2.37294 -5.87053,4.07244 -8.60714,4.07244 h -0.87046 z m -5.7482,-12.89821 c -3.78424,-1.01924 -7.05398,-3.66286 -8.65034,-6.9939 -0.93272,-1.94627 -1.57845,-4.83504 -1.42926,-6.39401 0.0967,-1.01097 0.20913,-1.0239 2.96574,-0.34128 6.10616,1.51209 9.91815,5.94253 10.39881,12.08588 l 0.16043,2.05052 -1.0314,-0.0174 c -0.56727,-0.01 -1.65356,-0.18498 -2.41398,-0.38979 z m 5.75211,-1.07772 c 0.0153,-6.09077 3.55831,-10.57783 9.87969,-12.51214 0.9976,-0.30526 2.15845,-0.55502 2.57969,-0.55502 0.74826,0 0.76588,0.0322 0.76588,1.39962 0,6.52245 -5.18495,12.27988 -11.75415,13.05196 l -1.47502,0.17336 z m -2.59634,-9.16149 c -1.48945,-1.9306 -2.62017,-4.4669 -3.00923,-6.74994 -0.59487,-3.49081 0.51526,-7.30585 3.10538,-10.67191 l 1.24431,-1.61707 0.60595,0.7536 c 0.33328,0.41449 0.98461,1.37526 1.44742,2.13506 2.82352,4.63544 3.06108,8.78985 0.7713,13.48873 -0.72637,1.4906 -2.39939,3.80396 -2.88585,3.99039 -0.10786,0.0413 -0.68353,-0.55665 -1.27928,-1.32886 z"
         id="path1" /><path
         style="fill:#bd6f3d"
         d="m -148.84288,353.3616 c -2.27043,-3.41952 -6.48351,-6.70352 -12.19057,-9.50227 -1.60073,-0.785 -5.52979,-2.49306 -8.73125,-3.79568 -7.23827,-2.94514 -9.69711,-4.08153 -13.29911,-6.14637 -7.44414,-4.26734 -11.85282,-8.45775 -16.74251,-15.91362 -6.74884,-10.29071 -8.83993,-18.66326 -9.6791,-38.75438 -0.15964,-3.82197 -0.12902,-4.3612 0.28343,-4.99067 0.41343,-0.63097 0.57473,-0.68775 1.52293,-0.53613 1.51323,0.24197 2.38123,0.75929 3.6031,2.14741 1.97063,2.23875 2.80684,4.90601 4.80837,15.33725 1.00055,5.21445 2.1845,8.74665 3.86177,11.52117 4.62874,7.65681 13.14777,14.69687 19.36119,15.99993 2.11335,0.44321 3.31504,0.15917 3.74791,-0.88586 0.6375,-1.53908 -0.59861,-3.0019 -7.02646,-8.31513 -6.70737,-5.54429 -8.97237,-8.60479 -8.95257,-12.09684 0.0161,-2.82833 1.43099,-4.85159 3.07956,-4.40354 0.33815,0.0919 1.98404,1.30431 3.65753,2.69424 4.33977,3.60443 7.12339,5.43458 12.55695,8.25582 6.7272,3.49292 9.49243,5.38921 12.97986,8.90109 5.33699,5.3744 8.4969,11.37313 10.46608,19.8687 0.70422,3.0382 0.98877,10.45822 0.52317,13.64248 -0.56487,3.86319 -2.00395,8.45023 -2.65107,8.45023 -0.10889,0 -0.63954,-0.66503 -1.17921,-1.47783 z m 10.85973,-0.17582 c -1.60458,-3.8486 -2.13405,-7.54556 -1.93723,-13.52641 0.21195,-6.44071 1.3398,-11.13497 4.0073,-16.67894 3.99272,-8.29824 9.54764,-13.5253 20.08842,-18.90278 5.01086,-2.55633 8.28171,-4.69467 12.20579,-7.97962 3.5953,-3.00971 4.391601,-3.44063 5.355081,-2.89788 0.37906,0.21353 0.97563,0.92402 1.3257,1.57886 1.38947,2.59914 0.21929,6.355 -3.072321,9.86107 -0.96601,1.02893 -3.78316,3.55734 -6.26034,5.61868 -5.97885,4.97519 -6.83833,6.02608 -6.19627,7.57615 1.5146,3.65656 12.3561,-1.70503 19.067811,-9.42986 4.8643,-5.59855 6.68251,-9.7653 8.42816,-19.31458 1.55738,-8.51941 2.78603,-11.97447 4.929,-13.86079 1.04221,-0.91739 2.61095,-1.61733 3.62481,-1.61733 1.29081,0 1.50351,2.34184 0.97364,10.72014 -0.80701,12.76047 -2.31207,19.93226 -5.66261,26.98298 -2.74672,5.78008 -5.82072,10.25046 -10.06176,14.63237 -5.8158,6.00899 -11.764911,9.43509 -26.738401,15.39868 -9.19367,3.66162 -14.01448,6.84701 -17.51729,11.57468 -0.78168,1.05502 -1.52222,1.91823 -1.64564,1.91823 -0.12342,0 -0.53465,-0.74414 -0.91385,-1.65365 z"
         id="path2-9" /><path
         style="fill:#7a763d"
         d="m -117.97414,417.00072 c 0.19719,-0.7769 0.18939,-1.1583 -0.0281,-1.37583 -0.78891,-0.78892 0.31878,-2.21142 1.17116,-1.50401 0.48904,0.40586 0.47847,0.81757 -0.0652,2.5424 -0.30986,0.98296 -0.58282,1.41231 -0.89791,1.41231 -0.39771,0 -0.41957,-0.13059 -0.17988,-1.07487 z m -122.50045,-1.56383 c -1.15575,-0.52462 -1.2718,-0.68826 -0.90169,-1.27149 0.16909,-0.26646 0.46325,-0.22555 1.38501,0.19263 2.67628,1.21415 5.63393,0.14508 4.78051,-1.72798 -0.21609,-0.47426 -0.81033,-0.77764 -2.58111,-1.31776 -2.74122,-0.83612 -3.54262,-1.50468 -3.54262,-2.95538 0,-1.24821 0.58851,-2.12881 1.74587,-2.61239 1.06445,-0.44476 3.07908,-0.45561 4.31968,-0.0233 0.96358,0.3358 1.19523,0.64704 0.86675,1.16453 -0.15596,0.24568 -0.47612,0.22487 -1.38477,-0.09 -2.07237,-0.7181 -4.22461,-0.0263 -4.22461,1.35791 0,0.85054 0.77132,1.41048 2.70446,1.96331 2.10084,0.60078 2.70489,0.9125 3.23509,1.66948 0.85755,1.22432 0.18203,3.16946 -1.31842,3.79639 -1.28563,0.53717 -3.73398,0.46685 -5.08415,-0.14601 z m 11.17864,0.0451 c -1.79708,-1.14481 -1.84396,-1.28813 -1.93672,-5.92088 l -0.0846,-4.22719 0.61381,0.087 c 0.60328,0.0855 0.61607,0.15379 0.74609,3.98457 0.12903,3.80141 0.14991,3.91519 0.8463,4.61059 0.57774,0.57693 0.96786,0.71675 2.04414,0.73262 1.11479,0.0164 1.44898,-0.099 2.06412,-0.71326 0.7278,-0.7267 0.7347,-0.76628 0.81919,-4.69636 l 0.0852,-3.96348 h 0.6424 0.64239 l -4.1e-4,3.77032 c -4.5e-4,4.15342 -0.25462,5.09275 -1.65608,6.12039 -1.05919,0.77667 -3.75599,0.89721 -4.8258,0.21571 z m 9.65729,-4.84476 v -5.32167 l 2.71198,0.10853 c 4.14378,0.16584 5.50235,1.08514 5.48073,3.70866 -0.0111,1.34805 -0.42716,2.18917 -1.39781,2.82591 l -0.71006,0.46579 1.18657,1.70108 c 0.9094,1.30373 1.09127,1.72176 0.77858,1.78961 -0.7208,0.15639 -1.10662,-0.15531 -2.21805,-1.79197 -1.16728,-1.71889 -1.34787,-1.79253 -3.51683,-1.43402 l -0.99219,0.16399 v 1.55289 c 0,1.48001 -0.031,1.55288 -0.66146,1.55288 h -0.66146 z m 5.80191,0.43667 c 0.83279,-0.43065 1.07726,-0.8832 1.07726,-1.99416 0,-1.77466 -0.94023,-2.38125 -3.69103,-2.38125 h -1.86522 v 2.38125 2.38125 h 1.86522 c 1.11953,0 2.16449,-0.15475 2.61377,-0.38709 z m 5.16381,4.54577 c -0.0716,-0.18659 -0.0976,-2.53807 -0.0578,-5.22553 l 0.0723,-4.88627 2.77813,0.0166 c 3.05607,0.0183 4.13064,0.36752 4.94237,1.60639 0.58722,0.89621 0.55859,2.97099 -0.0539,3.90577 -0.70341,1.07354 -1.36062,1.31785 -3.96243,1.47299 l -2.38125,0.142 -0.0788,1.65364 c -0.0689,1.44625 -0.1446,1.65365 -0.60362,1.65365 -0.28866,0 -0.58342,-0.15266 -0.65502,-0.33924 z m 5.68411,-4.54577 c 0.86126,-0.44537 1.07726,-0.8785 1.07726,-2.16012 0,-0.62022 -0.20991,-1.12634 -0.64943,-1.56586 -0.5736,-0.57359 -0.88022,-0.64943 -2.62569,-0.64943 h -1.97626 l -0.0863,2.12283 c -0.0475,1.16755 -0.0466,2.23911 0.002,2.38125 0.13853,0.40591 3.41625,0.30688 4.25851,-0.12867 z m 5.04601,-0.40666 v -5.29167 h 0.66146 0.66145 v 4.63021 4.63021 h 2.77813 2.77812 v 0.66146 0.66146 h -3.43958 -3.43958 z m 10.71562,4.87841 c -1.66269,-0.84043 -1.84332,-1.40224 -1.93672,-6.02371 l -0.0846,-4.18802 0.61381,0.087 c 0.60328,0.0855 0.61607,0.15379 0.74609,3.98457 0.12997,3.82896 0.14521,3.91049 0.86591,4.63021 0.60397,0.60314 0.96529,0.73261 2.04451,0.73261 1.07922,0 1.44054,-0.12947 2.04451,-0.73261 0.7207,-0.71972 0.73594,-0.80125 0.86591,-4.63021 0.12879,-3.79455 0.14803,-3.89983 0.7276,-3.98214 0.59454,-0.0844 0.59531,-0.0794 0.59531,3.86347 0,3.6641 -0.0432,4.01268 -0.60058,4.84705 -0.33033,0.49446 -1.01494,1.1072 -1.52136,1.36163 -1.13062,0.56805 -3.28671,0.59286 -4.36035,0.0502 z m 9.98802,-0.10878 c -1.15575,-0.52462 -1.27179,-0.68826 -0.90168,-1.27149 0.16909,-0.26646 0.46325,-0.22555 1.38501,0.19263 2.67627,1.21415 5.63392,0.14508 4.7805,-1.72798 -0.21609,-0.47426 -0.81032,-0.77764 -2.5811,-1.31776 -2.74122,-0.83612 -3.54262,-1.50468 -3.54262,-2.95538 0,-1.24821 0.58851,-2.12881 1.74587,-2.61239 1.06445,-0.44476 3.07907,-0.45561 4.31967,-0.0233 0.96978,0.33796 1.19529,0.64677 0.85926,1.17664 -0.16599,0.26175 -0.47601,0.24117 -1.47028,-0.0976 -2.0798,-0.70865 -4.13161,-0.0365 -4.13161,1.35344 0,0.8616 0.77432,1.40996 2.77386,1.96442 2.12913,0.59039 3.09395,1.24673 3.39967,2.3127 0.34206,1.19272 -0.36944,2.65779 -1.5253,3.14073 -1.30994,0.54733 -3.75041,0.48302 -5.11125,-0.13468 z m 13.42761,-4.77731 v -5.29935 l 3.50573,0.0738 c 3.40847,0.0718 3.50807,0.0903 3.59027,0.66914 0.0833,0.5866 0.0417,0.59531 -2.84427,0.59531 h -2.92882 v 1.85208 1.85209 h 2.64584 c 2.46944,0 2.64583,0.0353 2.64583,0.52916 0,0.49389 -0.17639,0.52917 -2.64583,0.52917 h -2.64584 v 2.24896 c 0,2.2225 -0.008,2.24896 -0.66146,2.24896 h -0.66145 z m 11.43098,4.75073 c -3.67338,-1.86502 -3.83447,-7.21415 -0.27828,-9.24082 0.89687,-0.51113 1.52945,-0.65629 2.87021,-0.65862 2.00308,-0.003 3.0702,0.50407 4.32566,2.05738 0.67172,0.83107 0.82832,1.2915 0.91793,2.69879 0.13843,2.17388 -0.5866,3.81652 -2.13755,4.84289 -1.49086,0.9866 -4.07777,1.12297 -5.69797,0.30038 z m 4.7086,-1.2754 c 2.496,-1.78712 2.46332,-5.33783 -0.0637,-6.92424 -0.67812,-0.42571 -1.19015,-0.52028 -2.39711,-0.44275 -1.34715,0.0865 -1.65162,0.21541 -2.49021,1.054 -0.82351,0.82351 -0.97278,1.16499 -1.0813,2.47363 -0.0943,1.13708 -0.007,1.73843 0.34645,2.39534 1.08783,2.01999 3.88818,2.73118 5.6859,1.44402 z m 8.4438,1.58484 c -2.11541,-0.6834 -3.41672,-2.54423 -3.41672,-4.8858 0,-1.89069 0.45173,-2.98657 1.67315,-4.05899 1.74758,-1.5344 4.03952,-1.79703 6.21624,-0.71233 1.85815,0.92595 2.74686,2.40309 2.74686,4.56556 0,3.11493 -1.8764,5.11836 -4.9124,5.24496 -0.89254,0.0372 -1.93075,-0.0318 -2.30713,-0.1534 z m 4.04613,-1.5088 c 1.39643,-0.72213 2.19058,-2.72715 1.7877,-4.51347 -0.12328,-0.54665 -0.62475,-1.37581 -1.14931,-1.90037 -0.81161,-0.81161 -1.12684,-0.9432 -2.4654,-1.02919 -1.20696,-0.0775 -1.71899,0.017 -2.39711,0.44275 -1.19603,0.75083 -1.91363,2.03125 -1.91482,3.4166 -0.003,3.33155 3.11117,5.1494 6.13894,3.58368 z m 5.76632,-3.54786 v -5.36243 l 2.89162,0.13705 c 2.20062,0.10431 3.1686,0.27115 4.05072,0.69818 3.65213,1.76796 3.73314,7.21217 0.13497,9.07016 -0.90154,0.46553 -1.71369,0.60416 -4.10075,0.69998 l -2.97656,0.11948 z m 6.35,3.50949 c 1.01335,-0.50623 2.12085,-2.34007 2.11085,-3.49524 -0.003,-0.36934 -0.23237,-1.17057 -0.50928,-1.78049 -0.71456,-1.57391 -2.03075,-2.19834 -4.63374,-2.19834 h -1.99491 v 3.96875 3.96875 l 2.05052,-4.1e-4 c 1.42202,-2.9e-4 2.33436,-0.14221 2.97656,-0.46302 z m 13.82448,1.26431 c -1.15575,-0.52462 -1.2718,-0.68826 -0.90169,-1.27149 0.16909,-0.26646 0.46325,-0.22555 1.38501,0.19263 2.22265,1.00835 4.7422,0.47135 4.7422,-1.01072 0,-1.02484 -0.60078,-1.47282 -2.87736,-2.14555 -2.38171,-0.7038 -3.20806,-1.43659 -3.20806,-2.84485 0,-1.24821 0.58851,-2.12881 1.74587,-2.61239 1.81257,-0.75734 5.36129,-0.17394 5.17429,0.85063 -0.12965,0.71037 -0.10902,0.70756 -1.60428,0.21849 -2.11046,-0.6903 -3.99296,-0.0482 -3.99296,1.36188 0,0.59824 1.10588,1.69799 1.70745,1.69799 0.8662,0 3.19374,0.90839 3.74819,1.46284 0.47121,0.47121 0.62977,0.92097 0.62977,1.7863 0,1.19584 -0.46929,1.86947 -1.76854,2.53863 -0.9168,0.47218 -3.5139,0.35026 -4.77989,-0.22439 z m 9.10607,0.34565 c -0.097,-0.097 -0.17639,-2.47827 -0.17639,-5.29167 v -5.11528 h 0.661461 c 0.65368,0 0.66146,0.0265 0.66146,2.24896 v 2.24896 h 3.04271 3.04271 v -2.24896 c 0,-2.2225 0.008,-2.24896 0.66146,-2.24896 h 0.66145 v 5.31007 5.31007 l -0.59531,-0.0845 c -0.55863,-0.0793 -0.60002,-0.22718 -0.67176,-2.39965 l -0.0764,-2.3151 h -3.03241 -3.03241 v 2.38125 c 0,2.1327 -0.0506,2.38125 -0.48507,2.38125 -0.26679,0 -0.564441,-0.0794 -0.661461,-0.17639 z m 10.671531,-0.0479 c 0,-0.14358 1.00685,-2.50334 2.23745,-5.24392 2.08736,-4.64864 2.28441,-4.98286 2.93768,-4.98286 0.65358,0 0.84825,0.3312 2.92193,4.97127 1.22193,2.7342 2.22169,5.09397 2.22169,5.24392 0,0.14996 -0.26661,0.2346 -0.59247,0.1881 -0.40921,-0.0584 -0.77669,-0.47328 -1.18805,-1.34132 l -0.59559,-1.25677 h -2.78326 -2.78327 l -0.59558,1.25677 c -0.41137,0.86804 -0.77885,1.28293 -1.18806,1.34132 -0.32586,0.0465 -0.59247,-0.0329 -0.59247,-0.17651 z m 7.30931,-3.88549 c -0.62669,-1.63315 -2.10638,-4.88554 -2.18632,-4.8056 -0.12386,0.12386 -2.21257,4.93092 -2.21257,5.09212 0,0.0655 1.02477,0.11906 2.27726,0.11906 1.93725,0 2.25403,-0.0606 2.12163,-0.40558 z m 4.98644,3.78906 c -0.0755,-0.19679 -0.10475,-2.55662 -0.065,-5.24408 l 0.0723,-4.88627 2.77812,0.0245 c 3.02926,0.0267 4.14362,0.37946 4.91435,1.55574 0.92032,1.40459 0.29678,4.2469 -1.09122,4.97415 l -0.66814,0.35007 0.75586,1.0457 c 0.41572,0.57513 0.96969,1.37312 1.23106,1.7733 l 0.4752,0.72761 h -0.67852 c -0.53284,0 -0.942,-0.36924 -1.90574,-1.71979 l -1.22721,-1.7198 h -1.55166 -1.55165 l -0.0788,1.65365 c -0.0708,1.48627 -0.13914,1.66222 -0.67526,1.73835 -0.32808,0.0466 -0.65828,-0.0763 -0.7338,-0.2731 z m 5.5592,-4.44013 c 0.40893,-0.15547 0.84987,-0.64199 1.07911,-1.19062 0.33727,-0.80721 0.33852,-1.04526 0.01,-1.83247 -0.51274,-1.22716 -1.09958,-1.47651 -3.47489,-1.47651 h -2.02852 l 0.14567,1.65365 c 0.0801,0.9095 0.15169,1.98106 0.15904,2.38125 0.0132,0.71698 0.0382,0.7276 1.71594,0.7276 0.93641,0 2.01373,-0.1183 2.39405,-0.2629 z m 5.42838,-0.53085 v -5.29167 h 3.43959 3.43958 v 0.66146 0.66146 h -2.77812 -2.77813 v 1.71979 1.71979 h 2.51354 c 2.33715,0 2.51354,0.0371 2.51354,0.52917 0,0.49203 -0.17639,0.52917 -2.51354,0.52917 h -2.51354 v 1.68893 c 0,2.01739 -0.0344,1.99859 3.4278,1.87209 2.38327,-0.0871 2.39303,-0.0848 2.39303,0.55702 v 0.64446 h -3.57187 -3.57188 z m 9.91858,4.9816 c -0.0778,-0.20263 -0.10882,-2.56724 -0.069,-5.2547 l 0.0723,-4.88627 2.91905,0.0314 c 3.87103,0.0417 5.15015,0.64444 6.33765,2.98651 0.73147,1.44265 0.46498,3.96183 -0.55436,5.24045 -1.27027,1.59338 -2.435,2.03073 -5.72289,2.14889 -2.25408,0.081 -2.8706,0.026 -2.98275,-0.2663 z m 6.42186,-1.54059 c 2.64736,-1.61411 2.53035,-5.56062 -0.20613,-6.95183 -0.68844,-0.35 -1.42146,-0.45014 -2.90514,-0.39688 l -1.98437,0.0712 0.0363,1.05834 c 0.0199,0.58208 0.0497,2.33825 0.0661,3.9026 l 0.0299,2.84427 2.05052,-9.9e-4 c 1.57915,-7.6e-4 2.24874,-0.12185 2.91283,-0.52675 z m 4.94296,1.22141 c -0.21709,-0.86499 0.0267,-1.22284 0.83323,-1.22284 1.2216,0 1.12484,1.61937 -0.10773,1.80312 -0.41069,0.0612 -0.60312,-0.0927 -0.7255,-0.58028 z m -72.556061,-20.29141 c -3.18736,-0.41402 -6.24187,-2.39282 -7.52702,-4.87622 -1.15023,-2.22266 -1.25429,-3.25815 -1.25759,-12.51359 l -0.003,-8.80942 0.64943,-0.64943 c 1.0712,-1.0712 3.21472,-0.74411 3.81931,0.58282 0.19462,0.42715 0.29376,3.3477 0.29376,8.65405 0,8.93746 0.15078,10.00048 1.66273,11.7225 1.1623,1.32379 2.60494,1.92623 4.62962,1.9333 3.14957,0.011 4.90173,-1.26671 5.95751,-4.34435 0.15778,-0.45995 0.34338,-4.56561 0.43001,-9.51241 l 0.15242,-8.7032 0.70349,-0.52473 c 0.57502,-0.4289 0.92928,-0.49087 1.93986,-0.33932 1.91072,0.28653 1.98729,0.62614 1.98469,8.8031 -0.002,7.55499 -0.26596,10.73419 -1.06746,12.87638 -1.16861,3.1234 -4.05693,5.18125 -8.0115,5.708 -1.13831,0.15162 -2.20987,0.26058 -2.38125,0.24213 -0.17137,-0.0185 -1.06006,-0.13078 -1.97487,-0.24961 z m -116.139,-0.17948 c -1.68981,-0.1964 -1.65708,0.0744 -1.65708,-13.71044 0,-12.26364 0.009,-12.47592 0.5465,-12.9624 0.63542,-0.57505 2.93532,-0.67809 3.85885,-0.17289 0.44219,0.2419 8.13271,10.76963 13.03496,17.84386 0.37601,0.5426 0.74318,0.98914 0.81594,0.99231 0.0728,0.003 0.0995,-4.02548 0.0594,-8.95257 -0.0694,-8.52853 -0.0483,-8.9887 0.43997,-9.59126 0.42518,-0.52475 0.74461,-0.62959 1.86889,-0.61339 2.40226,0.0346 2.25153,-0.82551 2.33557,13.3277 l 0.0736,12.40268 -0.62709,0.72903 c -0.5176,0.60176 -0.84246,0.72904 -1.86072,0.72904 -2.18976,0 -1.60422,0.66152 -10.24708,-11.5769 l -5.40407,-7.65224 -0.13229,9.16447 c -0.14296,9.90368 -0.12178,9.76988 -1.5875,10.02665 -0.3638,0.0637 -1.04687,0.0711 -1.51792,0.0164 z m 47.08156,-0.0624 c -0.4789,-0.11347 -1.11721,-0.4287 -1.41846,-0.70052 -0.30126,-0.27182 -3.35271,-4.48282 -6.78102,-9.35777 -3.42831,-4.87494 -6.3403,-8.9826 -6.4711,-9.12812 -0.14113,-0.15702 -0.22143,3.39264 -0.19752,8.73125 0.0222,4.94771 0.0303,9.13616 0.0182,9.30766 -0.0513,0.72446 -0.87527,1.14338 -2.24893,1.14338 -2.41455,0 -2.27106,0.84594 -2.27106,-13.38957 0,-13.76107 -0.0474,-13.38125 1.7094,-13.71081 0.51072,-0.0958 1.40774,-0.0452 1.99338,0.11251 0.99309,0.26741 1.3284,0.6577 4.9799,5.79648 2.15331,3.03037 5.09897,7.24615 6.5459,9.36841 1.44694,2.12226 2.69242,3.86469 2.76774,3.87207 0.0753,0.007 0.13485,-4.08936 0.13229,-9.10386 -0.005,-10.50416 -0.10209,-10.08057 2.29382,-10.04485 2.45402,0.0366 2.33173,-0.67249 2.33173,13.52028 0,7.51147 -0.10071,12.47941 -0.259,12.77515 -0.22443,0.41936 -1.63445,1.12026 -2.09558,1.04169 -0.0874,-0.0149 -0.55079,-0.11992 -1.02969,-0.23338 z m 37.78011,0.0704 c -0.36381,-0.0675 -0.86982,-0.30892 -1.12448,-0.53648 -0.42863,-0.38303 -0.46302,-1.34428 -0.46302,-12.94046 0,-12.17393 0.0149,-12.54161 0.52916,-13.05587 0.49539,-0.49539 0.87965,-0.52897 6.01927,-0.52603 5.74783,0.003 7.1225,0.19174 9.21932,1.26384 2.88181,1.47346 4.35647,4.93734 3.79371,8.91116 -0.43471,3.06962 -1.93693,5.04241 -4.87709,6.40482 -1.48193,0.6867 -1.86463,0.74224 -5.75469,0.8353 l -4.16718,0.0997 v 4.1763 c 0,3.59636 -0.0643,4.2509 -0.46303,4.71356 -0.49689,0.57657 -1.64178,0.85273 -2.71197,0.65417 z m 9.1267,-13.56642 c 1.73643,-0.28434 2.61623,-0.80704 3.47102,-2.06217 1.12015,-1.64479 0.99843,-4.46724 -0.25211,-5.8459 -1.14429,-1.26151 -2.413,-1.60662 -5.92947,-1.61293 l -3.24114,-0.006 v 4.89479 4.89479 l 2.18281,-0.002 c 1.20054,-8.4e-4 2.89655,-0.1184 3.76889,-0.26124 z m 58.546391,13.57891 c -0.84491,-0.14163 -1.03928,-0.39679 -4.59815,-6.03618 l -2.67401,-4.23725 -2.41922,-0.0761 -2.41922,-0.0761 v 4.47217 c 0,4.12373 -0.0427,4.52648 -0.54837,5.1693 -0.46853,0.59564 -0.75146,0.69714 -1.94336,0.69714 -2.52792,0 -2.3847,0.83027 -2.34108,-13.57196 l 0.0378,-12.48476 0.60069,-0.48641 c 0.55275,-0.44759 1.07676,-0.47792 6.56469,-0.37999 6.97577,0.12449 7.95664,0.3392 10.01856,2.19304 1.94777,1.75121 2.5556,3.16953 2.54761,5.94466 -0.005,1.71568 -0.13927,2.5411 -0.5665,3.48095 -0.65482,1.4405 -2.35862,3.18673 -3.58623,3.67552 -0.47407,0.18876 -0.9007,0.37133 -0.94807,0.40571 -0.0474,0.0344 1.24974,2.06101 2.88247,4.50362 1.63274,2.44261 3.02026,4.63864 3.0834,4.88008 0.0631,0.24143 -0.16241,0.75812 -0.50122,1.14819 -0.63545,0.73158 -1.7892,1.0131 -3.1898,0.77832 z m -4.55902,-14.60721 c 2.59676,-1.17955 3.6043,-4.47084 2.03273,-6.64022 -0.96562,-1.33292 -2.51678,-1.82792 -6.21087,-1.98199 l -3.37344,-0.14069 v 4.63011 4.63011 l 3.24115,-0.006 c 2.57075,-0.005 3.46232,-0.10627 4.31043,-0.49151 z m 32.21142,14.49124 c -0.85842,-0.24814 -2.87828,-2.92791 -11.69495,-15.51584 -1.3507,-1.92846 -2.54675,-3.56248 -2.65787,-3.63116 -0.11112,-0.0687 -0.14204,3.72595 -0.0687,8.43251 0.0733,4.70655 0.0568,8.86233 -0.0368,9.23505 -0.28739,1.14506 -0.87088,1.50844 -2.42214,1.50844 -2.36766,0 -2.24507,0.74505 -2.24507,-13.64391 0,-12.34316 0.006,-12.47286 0.5575,-12.97185 0.77814,-0.70351 3.1428,-0.67549 4.11281,0.0487 0.3866,0.28864 3.57183,4.59162 7.07828,9.56218 3.50646,4.97057 6.4349,9.0442 6.50766,9.05253 0.0728,0.008 0.0981,-4.01439 0.0563,-8.93936 -0.0725,-8.54369 -0.0524,-8.9837 0.43964,-9.5913 0.67578,-0.83454 2.84827,-0.91231 3.70964,-0.13278 0.55113,0.49876 0.55694,0.6337 0.55694,12.91583 0,7.86479 -0.0981,12.59505 -0.26769,12.912 -0.14724,0.27511 -0.71278,0.6238 -1.25677,0.77488 -1.13683,0.31572 -1.22341,0.31513 -2.36879,-0.016 z m -210.271951,-0.55904 c -0.22653,-0.32342 -0.41188,-0.68903 -0.41188,-0.81247 0,-0.38152 8.68603,-23.00537 9.28647,-24.18776 0.6695,-1.31839 1.76868,-1.79874 3.63476,-1.58841 0.89989,0.10143 1.39133,0.33344 1.88686,0.89077 0.39624,0.44567 2.06285,4.26744 4.0785,9.35258 1.87465,4.72942 4.0335,10.14677 4.79744,12.03854 1.10777,2.74322 1.33371,3.54672 1.11599,3.96875 -0.4104,0.79553 -0.71953,0.91757 -2.33557,0.92199 -1.89307,0.005 -2.13148,-0.25642 -3.42194,-3.75476 l -1.00463,-2.72348 -5.68808,-0.0712 -5.68807,-0.0712 -0.97297,2.91997 c -0.53514,1.60599 -1.14957,3.09656 -1.36539,3.31239 -0.25772,0.25772 -0.92567,0.39241 -1.94601,0.39241 -1.30551,0 -1.61937,-0.0939 -1.96548,-0.58804 z m 15.91121,-10.7229 c -0.19758,-0.40018 -1.17235,-2.96462 -2.16615,-5.69876 -0.9938,-2.73414 -1.89255,-4.87727 -1.99724,-4.7625 -0.10469,0.11476 -0.9706,2.47085 -1.92425,5.23574 -0.95365,2.7649 -1.81403,5.23545 -1.91194,5.49011 -0.16503,0.42919 0.13379,0.46302 4.0904,0.46302 h 4.26843 z m 69.01154,10.78895 c -0.31906,-0.35255 -0.42463,-0.76082 -0.32523,-1.25781 0.19419,-0.97095 8.85363,-23.27728 9.39978,-24.21341 0.83312,-1.42801 3.97772,-1.68182 5.23686,-0.42268 0.40023,0.40022 2.32871,4.91705 5.2935,12.39826 2.56514,6.47277 4.72327,12.04074 4.79584,12.37326 0.23242,1.06499 -0.59392,1.64437 -2.34524,1.64437 -1.9759,0 -2.21257,-0.25818 -3.50574,-3.82444 l -1.01543,-2.80031 -5.70566,0.0712 -5.70566,0.0712 -0.9481,2.81152 c -0.52145,1.54633 -1.1115,3.00485 -1.31121,3.24114 -0.55709,0.65911 -3.24172,0.59493 -3.86371,-0.0924 z m 16.00079,-10.22285 c 0,-0.0888 -0.69961,-2.0236 -1.55469,-4.29948 -0.85508,-2.27588 -1.75762,-4.76305 -2.00564,-5.52703 -0.24802,-0.76399 -0.53068,-1.38787 -0.62812,-1.38641 -0.0975,0.001 -0.99876,2.41248 -2.00292,5.35782 -1.00416,2.94533 -1.8801,5.50398 -1.94654,5.68588 -0.0934,0.25561 0.81705,0.33073 4.00856,0.33073 2.27114,0 4.12935,-0.0727 4.12935,-0.16151 z m 117.510991,10.06905 c -0.64303,-0.81748 -1.14672,0.70721 4.58416,-13.87629 2.43038,-6.18464 4.66345,-11.50782 4.9624,-11.82929 0.69194,-0.74409 2.55889,-1.04255 3.93758,-0.62948 1.3052,0.39104 1.2107,0.20278 5.39022,10.73898 5.9194,14.92229 5.83421,14.67824 5.39703,15.45944 -0.33987,0.60732 -0.56642,0.68841 -2.1159,0.75742 -1.2477,0.0556 -1.82242,-0.0277 -2.04541,-0.29639 -0.17056,-0.20552 -0.77181,-1.66905 -1.3361,-3.25228 l -1.02599,-2.87861 h -5.76092 -5.76091 l -0.94826,2.81152 c -0.52155,1.54633 -1.11167,3.00485 -1.31139,3.24114 -0.25814,0.30541 -0.80722,0.42963 -1.89903,0.42963 -1.33184,0 -1.60652,-0.0898 -2.06748,-0.67579 z m 16.10359,-10.12397 c 0,-0.27658 -3.65884,-10.33289 -3.94646,-10.84685 -0.15783,-0.28203 -0.33214,-0.0741 -0.64946,0.77483 -0.23855,0.63818 -1.19281,3.21415 -2.12059,5.72438 l -1.68687,4.56407 h 4.20169 c 2.31093,0 4.20169,-0.0974 4.20169,-0.21643 z M -143.38023,320.59084 c -0.3631,-0.4616 -0.5599,-1.2775 -0.68608,-2.84427 -0.24973,-3.10094 -0.90847,-6.84471 -1.66686,-9.47304 -3.73556,-12.94632 -13.89973,-23.39208 -25.75132,-26.46473 l -1.71979,-0.44587 1.77949,-0.20087 c 1.033,-0.11661 2.80887,-0.0782 4.23333,0.0916 6.75183,0.80469 11.45241,3.07839 16.21078,7.84123 2.90351,2.90623 5.19437,6.10183 7.04753,9.83082 l 1.39635,2.80979 0.59928,-3.04746 c 1.16881,-5.94362 3.33877,-10.63728 6.53394,-14.13306 2.65211,-2.90162 4.45581,-4.09429 13.91064,-9.19817 6.94515,-3.74912 10.78313,-6.88073 12.32482,-10.05651 0.75531,-1.55587 0.76155,-1.56098 0.97007,-0.79375 0.50612,1.86231 0.73775,6.45826 0.48278,9.57904 -0.94961,11.62278 -5.76062,20.15057 -14.27028,25.29488 -3.42406,2.06993 -8.70162,4.12975 -12.32049,4.80865 -0.94752,0.17776 -0.98081,0.15939 -0.80636,-0.44476 0.45142,-1.56332 3.15186,-6.66906 4.67141,-8.83227 1.07054,-1.524 3.55182,-4.26243 6.89246,-7.60677 2.87087,-2.87403 5.16246,-5.22552 5.09243,-5.22552 -0.23693,0 -6.58061,4.31162 -8.57839,5.83049 -4.34241,3.30144 -8.22071,8.04339 -10.4811,12.81513 -1.97643,4.17229 -2.76705,8.1018 -3.16895,15.75022 -0.0956,1.81901 -0.29593,3.54541 -0.44523,3.83645 -0.57136,1.11385 -1.50283,1.22923 -2.25046,0.27877 z m -4.22305,-44.18221 c -3.49936,-1.13328 -6.16059,-3.36767 -7.74183,-6.50008 -0.89783,-1.77859 -1.57529,-4.46815 -1.5827,-6.28345 -0.006,-1.35818 0.21129,-1.39755 3.17486,-0.5763 5.97481,1.65571 9.58647,5.9426 10.18203,12.08567 l 0.18597,1.91823 -1.15133,-0.0118 c -0.63324,-0.007 -2.01339,-0.29101 -3.067,-0.63223 z m 6.54587,-0.75555 c 0,-6.54804 4.999,-11.9272 12.10469,-13.02521 l 1.12448,-0.17377 v 1.31006 c 0,4.8033 -2.73079,9.46863 -6.81722,11.64667 -1.70738,0.91003 -4.17744,1.64187 -5.54149,1.64187 h -0.87046 z m -5.88098,-13.03472 c -5.53264,-1.34116 -9.44432,-6.11241 -9.91202,-12.09014 -0.15967,-2.04082 -0.15738,-2.05052 0.48466,-2.05052 1.06539,0 3.69187,0.7643 5.46905,1.59149 2.20792,1.02768 4.75271,3.48026 5.83756,5.62607 0.86463,1.7102 1.60795,4.62772 1.61589,6.34234 0.005,0.97483 -0.0128,0.9918 -0.9876,0.97014 -0.5457,-0.0121 -1.67409,-0.18735 -2.50754,-0.38938 z m 5.88098,-1.12049 c 0,-6.02759 4.28442,-11.12222 10.60667,-12.61247 2.63438,-0.62096 2.62311,-0.62518 2.61859,0.98136 -0.01,3.38717 -1.31747,6.55978 -3.74766,9.09058 -2.27862,2.37294 -5.87053,4.07244 -8.60714,4.07244 h -0.87046 z m -5.7482,-12.89821 c -3.78424,-1.01924 -7.05398,-3.66287 -8.65034,-6.99391 -0.93272,-1.94627 -1.57845,-4.83504 -1.42926,-6.39401 0.0967,-1.01097 0.20913,-1.0239 2.96574,-0.34128 6.10616,1.51209 9.91815,5.94253 10.39881,12.08589 l 0.16043,2.05052 -1.0314,-0.0174 c -0.56727,-0.01 -1.65356,-0.18498 -2.41398,-0.38979 z m 5.75211,-1.07772 c 0.0153,-6.09078 3.55831,-10.57784 9.87969,-12.51215 0.9976,-0.30526 2.15845,-0.55502 2.57969,-0.55502 0.74826,0 0.76588,0.0322 0.76588,1.39962 0,6.52245 -5.18495,12.27989 -11.75415,13.05197 l -1.47502,0.17336 z m -2.59634,-9.1615 c -1.48945,-1.9306 -2.62017,-4.4669 -3.00923,-6.74994 -0.59487,-3.49081 0.51526,-7.30585 3.10538,-10.67191 l 1.24431,-1.61707 0.60595,0.7536 c 0.33328,0.41449 0.98461,1.37526 1.44742,2.13506 2.82352,4.63544 3.06108,8.78985 0.7713,13.48873 -0.72637,1.4906 -2.39939,3.80396 -2.88585,3.99039 -0.10786,0.0413 -0.68353,-0.55665 -1.27928,-1.32886 z"
         id="path1-4" /></g><g
       id="g2"
       transform="translate(-1095.1503,174.70256)"><path
         style="fill:#bd6f3d"
         d="m -148.84288,353.3616 c -2.27043,-3.41952 -6.48351,-6.70352 -12.19057,-9.50227 -1.60073,-0.785 -5.52979,-2.49306 -8.73125,-3.79568 -7.23827,-2.94514 -9.69711,-4.08153 -13.29911,-6.14637 -7.44414,-4.26734 -11.85282,-8.45775 -16.74251,-15.91362 -6.74884,-10.29071 -8.83993,-18.66326 -9.6791,-38.75438 -0.15964,-3.82197 -0.12902,-4.3612 0.28343,-4.99067 0.41343,-0.63097 0.57473,-0.68775 1.52293,-0.53613 1.51323,0.24197 2.38123,0.75929 3.6031,2.14741 1.97063,2.23875 2.80684,4.90601 4.80837,15.33725 1.00055,5.21445 2.1845,8.74665 3.86177,11.52117 4.62874,7.65681 13.14777,14.69687 19.36119,15.99993 2.11335,0.44321 3.31504,0.15917 3.74791,-0.88586 0.6375,-1.53908 -0.59861,-3.0019 -7.02646,-8.31513 -6.70737,-5.54429 -8.97237,-8.60479 -8.95257,-12.09684 0.0161,-2.82833 1.43099,-4.85159 3.07956,-4.40354 0.33815,0.0919 1.98404,1.30431 3.65753,2.69424 4.33977,3.60443 7.12339,5.43458 12.55695,8.25582 6.7272,3.49292 9.49243,5.38921 12.97986,8.90109 5.33699,5.3744 8.4969,11.37313 10.46608,19.8687 0.70422,3.0382 0.98877,10.45822 0.52317,13.64248 -0.56487,3.86319 -2.00395,8.45023 -2.65107,8.45023 -0.10889,0 -0.63954,-0.66503 -1.17921,-1.47783 z m 10.85973,-0.17582 c -1.60458,-3.8486 -2.13405,-7.54556 -1.93723,-13.52641 0.21195,-6.44071 1.3398,-11.13497 4.0073,-16.67894 3.99272,-8.29824 9.54764,-13.5253 20.08842,-18.90278 5.01086,-2.55633 8.28171,-4.69467 12.20579,-7.97962 3.5953,-3.00971 4.391601,-3.44063 5.355081,-2.89788 0.37906,0.21353 0.97563,0.92402 1.3257,1.57886 1.38947,2.59914 0.21929,6.355 -3.072321,9.86107 -0.96601,1.02893 -3.78316,3.55734 -6.26034,5.61868 -5.97885,4.97519 -6.83833,6.02608 -6.19627,7.57615 1.5146,3.65656 12.3561,-1.70503 19.067811,-9.42986 4.8643,-5.59855 6.68251,-9.7653 8.42816,-19.31458 1.55738,-8.51941 2.78603,-11.97447 4.929,-13.86079 1.04221,-0.91739 2.61095,-1.61733 3.62481,-1.61733 1.29081,0 1.50351,2.34184 0.97364,10.72014 -0.80701,12.76047 -2.31207,19.93226 -5.66261,26.98298 -2.74672,5.78008 -5.82072,10.25046 -10.06176,14.63237 -5.8158,6.00899 -11.764911,9.43509 -26.738401,15.39868 -9.19367,3.66162 -14.01448,6.84701 -17.51729,11.57468 -0.78168,1.05502 -1.52222,1.91823 -1.64564,1.91823 -0.12342,0 -0.53465,-0.74414 -0.91385,-1.65365 z"
         id="path2-9-0" /><path
         style="fill:#7a763d"
         d="m -143.38023,320.59084 c -0.3631,-0.4616 -0.5599,-1.2775 -0.68608,-2.84427 -0.24973,-3.10094 -0.90847,-6.84471 -1.66686,-9.47304 -3.73556,-12.94632 -13.89973,-23.39208 -25.75132,-26.46473 l -1.71979,-0.44587 1.77949,-0.20087 c 1.033,-0.11661 2.80887,-0.0782 4.23333,0.0916 6.75183,0.80469 11.45241,3.07839 16.21078,7.84123 2.90351,2.90623 5.19437,6.10183 7.04753,9.83082 l 1.39635,2.80979 0.59928,-3.04746 c 1.16881,-5.94362 3.33877,-10.63728 6.53394,-14.13306 2.65211,-2.90162 4.45581,-4.09429 13.91064,-9.19817 6.94515,-3.74912 10.78313,-6.88073 12.32482,-10.05651 0.75531,-1.55587 0.76155,-1.56098 0.97007,-0.79375 0.50612,1.86231 0.73775,6.45826 0.48278,9.57904 -0.94961,11.62278 -5.76062,20.15057 -14.27028,25.29488 -3.42406,2.06993 -8.70162,4.12975 -12.32049,4.80865 -0.94752,0.17776 -0.98081,0.15939 -0.80636,-0.44476 0.45142,-1.56332 3.15186,-6.66906 4.67141,-8.83227 1.07054,-1.524 3.55182,-4.26243 6.89246,-7.60677 2.87087,-2.87403 5.16246,-5.22552 5.09243,-5.22552 -0.23693,0 -6.58061,4.31162 -8.57839,5.83049 -4.34241,3.30144 -8.22071,8.04339 -10.4811,12.81513 -1.97643,4.17229 -2.76705,8.1018 -3.16895,15.75022 -0.0956,1.81901 -0.29593,3.54541 -0.44523,3.83645 -0.57136,1.11385 -1.50283,1.22923 -2.25046,0.27877 z m -4.22305,-44.18221 c -3.49936,-1.13328 -6.16059,-3.36767 -7.74183,-6.50008 -0.89783,-1.77859 -1.57529,-4.46815 -1.5827,-6.28345 -0.006,-1.35818 0.21129,-1.39755 3.17486,-0.5763 5.97481,1.65571 9.58647,5.9426 10.18203,12.08567 l 0.18597,1.91823 -1.15133,-0.0118 c -0.63324,-0.007 -2.01339,-0.29101 -3.067,-0.63223 z m 6.54587,-0.75555 c 0,-6.54804 4.999,-11.9272 12.10469,-13.02521 l 1.12448,-0.17377 v 1.31006 c 0,4.8033 -2.73079,9.46863 -6.81722,11.64667 -1.70738,0.91003 -4.17744,1.64187 -5.54149,1.64187 h -0.87046 z m -5.88098,-13.03472 c -5.53264,-1.34116 -9.44432,-6.11241 -9.91202,-12.09014 -0.15967,-2.04082 -0.15738,-2.05052 0.48466,-2.05052 1.06539,0 3.69187,0.7643 5.46905,1.59149 2.20792,1.02768 4.75271,3.48026 5.83756,5.62607 0.86463,1.7102 1.60795,4.62772 1.61589,6.34234 0.005,0.97483 -0.0128,0.9918 -0.9876,0.97014 -0.5457,-0.0121 -1.67409,-0.18735 -2.50754,-0.38938 z m 5.88098,-1.12049 c 0,-6.02759 4.28442,-11.12222 10.60667,-12.61247 2.63438,-0.62096 2.62311,-0.62518 2.61859,0.98136 -0.01,3.38717 -1.31747,6.55978 -3.74766,9.09058 -2.27862,2.37294 -5.87053,4.07244 -8.60714,4.07244 h -0.87046 z m -5.7482,-12.89821 c -3.78424,-1.01924 -7.05398,-3.66287 -8.65034,-6.99391 -0.93272,-1.94627 -1.57845,-4.83504 -1.42926,-6.39401 0.0967,-1.01097 0.20913,-1.0239 2.96574,-0.34128 6.10616,1.51209 9.91815,5.94253 10.39881,12.08589 l 0.16043,2.05052 -1.0314,-0.0174 c -0.56727,-0.01 -1.65356,-0.18498 -2.41398,-0.38979 z m 5.75211,-1.07772 c 0.0153,-6.09078 3.55831,-10.57784 9.87969,-12.51215 0.9976,-0.30526 2.15845,-0.55502 2.57969,-0.55502 0.74826,0 0.76588,0.0322 0.76588,1.39962 0,6.52245 -5.18495,12.27989 -11.75415,13.05197 l -1.47502,0.17336 z m -2.59634,-9.1615 c -1.48945,-1.9306 -2.62017,-4.4669 -3.00923,-6.74994 -0.59487,-3.49081 0.51526,-7.30585 3.10538,-10.67191 l 1.24431,-1.61707 0.60595,0.7536 c 0.33328,0.41449 0.98461,1.37526 1.44742,2.13506 2.82352,4.63544 3.06108,8.78985 0.7713,13.48873 -0.72637,1.4906 -2.39939,3.80396 -2.88585,3.99039 -0.10786,0.0413 -0.68353,-0.55665 -1.27928,-1.32886 z"
         id="path1-4-7" /></g></g></svg>
