<svg width="30" height="29" viewBox="0 0 30 29" fill="none" xmlns="http://www.w3.org/2000/svg">
<path d="M15 5.83334C17.2412 5.83334 18.9998 7.58109 19 9.66635C19 11.7518 17.2414 13.5003 15 13.5003C12.7586 13.5003 11 11.7518 11 9.66635C11.0002 7.58109 12.7588 5.83334 15 5.83334Z" stroke="#33363F" stroke-width="2" stroke-linecap="round"/>
<path d="M18.8609 9.57526C19.2199 8.97425 19.8175 8.52618 20.5302 8.34157C21.2435 8.15682 22.0025 8.2544 22.6377 8.60887C23.2718 8.96276 23.7244 9.53955 23.9086 10.2039C24.0924 10.8672 23.9972 11.5751 23.6391 12.1747C23.2801 12.7758 22.6825 13.2238 21.9698 13.4084C21.2565 13.5932 20.4975 13.4956 19.8623 13.1411C19.2282 12.7872 18.7756 12.2104 18.5914 11.5461C18.4076 10.8828 18.5028 10.1749 18.8609 9.57526L18.8609 9.57526Z" stroke="#33363F" stroke-width="2"/>
<path d="M6.36093 9.57526C6.7199 8.97425 7.31745 8.52618 8.03017 8.34157C8.74347 8.15682 9.50253 8.2544 10.1377 8.60887C10.7718 8.96276 11.2244 9.53955 11.4086 10.2039C11.5924 10.8672 11.4972 11.5751 11.1391 12.1747C10.7801 12.7758 10.1825 13.2238 9.46983 13.4084C8.75653 13.5932 7.99747 13.4956 7.36234 13.1411C6.72825 12.7872 6.27559 12.2104 6.09144 11.5461C5.90757 10.8828 6.0028 10.1749 6.36093 9.57526L6.36093 9.57526Z" stroke="#33363F" stroke-width="2"/>
<path d="M21.2495 16.917V15.917H21.2494L21.2495 16.917ZM25.978 20.6475L26.9271 20.3324L26.927 20.3322L25.978 20.6475ZM25.1128 21.75V22.75H25.1133L25.1128 21.75ZM21.1001 21.75L20.1211 21.954L20.287 22.75H21.1001V21.75ZM18.4761 17.7754L17.8842 16.9693L16.6734 17.8584L17.9608 18.6324L18.4761 17.7754ZM21.2495 16.917V17.917C23.5987 17.917 24.5952 19.6568 25.029 20.9627L25.978 20.6475L26.927 20.3322C26.4131 18.7851 24.9419 15.917 21.2495 15.917V16.917ZM25.978 20.6475L25.029 20.9625C25.0233 20.9454 25.018 20.9122 25.0259 20.8717C25.0333 20.8334 25.0492 20.8041 25.0645 20.7852C25.0941 20.7486 25.1189 20.75 25.1123 20.75L25.1128 21.75L25.1133 22.75C26.2724 22.7495 27.3699 21.6664 26.9271 20.3324L25.978 20.6475ZM25.1128 21.75V20.75H21.1001V21.75V22.75H25.1128V21.75ZM21.1001 21.75L22.0791 21.546C21.8096 20.2529 21.0685 18.1673 18.9914 16.9184L18.4761 17.7754L17.9608 18.6324C19.3425 19.4632 19.9003 20.8942 20.1211 21.954L21.1001 21.75ZM18.4761 17.7754L19.0679 18.5814C19.5912 18.1972 20.2882 17.9171 21.2496 17.917L21.2495 16.917L21.2494 15.917C19.8613 15.9171 18.7499 16.3338 17.8842 16.9693L18.4761 17.7754Z" fill="#33363F"/>
<path d="M8.75 16.917L8.75003 15.917H8.75V16.917ZM11.5234 17.7764L12.0388 18.6333L13.3258 17.8593L12.1153 16.9704L11.5234 17.7764ZM8.89941 21.75V22.75H9.71251L9.87838 21.954L8.89941 21.75ZM4.02246 20.6475L3.07346 20.3322L3.07346 20.3322L4.02246 20.6475ZM8.75 16.917L8.74997 17.917C9.71093 17.917 10.4076 18.1976 10.9315 18.5824L11.5234 17.7764L12.1153 16.9704C11.2501 16.335 10.1391 15.917 8.75003 15.917L8.75 16.917ZM11.5234 17.7764L11.008 16.9194C8.9316 18.1683 8.18996 20.2527 7.92044 21.546L8.89941 21.75L9.87838 21.954C10.0991 20.8948 10.6572 19.4643 12.0388 18.6333L11.5234 17.7764ZM8.89941 21.75V20.75H4.8877V21.75V22.75H8.89941V21.75ZM4.8877 21.75V20.75C4.88105 20.75 4.90606 20.7486 4.93579 20.7854C4.95117 20.8045 4.96717 20.8338 4.97455 20.8721C4.98236 20.9126 4.9771 20.9458 4.97146 20.9627L4.02246 20.6475L3.07346 20.3322C2.63027 21.6663 3.72758 22.75 4.8877 22.75V21.75ZM4.02246 20.6475L4.97146 20.9627C5.40542 19.6565 6.40108 17.917 8.75 17.917V16.917V15.917C5.05741 15.917 3.58731 18.7854 3.07346 20.3322L4.02246 20.6475Z" fill="#33363F"/>
<path d="M15 16.9167C19.644 16.9167 20.8373 20.2522 21.1439 21.9665C21.2412 22.5102 20.8023 22.9583 20.25 22.9583H9.75C9.19772 22.9583 8.7588 22.5102 8.85605 21.9665C9.1627 20.2522 10.356 16.9167 15 16.9167Z" stroke="#33363F" stroke-width="2" stroke-linecap="round"/>
</svg>
